<svg xmlns="http://www.w3.org/2000/svg" width="1205.4248" height="305.70788" viewBox="0 0 1205.4248 305.70788">
  <defs>
    <style>
      .cls-1 {
        fill: #fbb547;
      }

      .cls-2 {
        fill: #175b2a;
      }

      .cls-3 {
        fill: #3fa5a2;
      }

      .cls-4 {
        fill: #fffdf0;
      }

      .cls-5 {
        fill: #6e3586;
      }

      .cls-6 {
        fill: #39bfc9;
      }

      .cls-7 {
        fill: #a41916;
      }

      .cls-8 {
        fill: #fffdef;
      }

      .cls-9 {
        fill: #77bb5e;
      }

      .cls-10 {
        fill: #34110d;
      }

      .cls-11 {
        fill: #32110c;
      }

      .cls-12 {
        fill: #8b59a0;
      }

      .cls-13 {
        fill: #fefcf1;
      }

      .cls-14 {
        fill: #42245e;
      }

      .cls-15 {
        fill: #fffdf1;
      }

      .cls-16 {
        fill: #b8181c;
      }

      .cls-17 {
        fill: #ea4f56;
      }

      .cls-18 {
        fill: #41235f;
      }

      .cls-19 {
        fill: #37a5a5;
      }

      .cls-20 {
        fill: #48d0d3;
      }

      .cls-21 {
        fill: #d0caa5;
      }

      .cls-22 {
        fill: #844a97;
      }

      .cls-23 {
        fill: #cdc2a8;
      }

      .cls-24 {
        fill: #41cbce;
      }

      .cls-25 {
        fill: #196f30;
      }

      .cls-26 {
        fill: #d0c7a8;
      }

      .cls-27 {
        fill: none;
      }

      .cls-28 {
        fill: #e89132;
      }

      .cls-29 {
        fill: #35110d;
      }

      .cls-30 {
        fill: #fff;
      }
    </style>
  </defs>
  <g id="Camada_6" data-name="Camada 6">
    <g>
      <path class="cls-1" d="M901.32532,557.14337l15.59715.01191a76.04337,76.04337,0,0,1-7.45123-47.88275c2.12213-12.96911,6.86415-22.7033,9.88027-26.09489l-16.52411.54081C896.73054,489.6801,886.66782,524.6805,901.32532,557.14337Z" transform="translate(-306.73021 -387.14606)"/>
      <path class="cls-2" d="M931.19908,557.29223c-8.91184-18.18125-8.792-36.22044-7.044-48.10264,1.90113-12.92552,6.29715-23.1528,8.98634-26.57678l-13.08168.468c-2.83079,2.74522-8.08285,13.01859-10.26564,26.35836a75.87474,75.87474,0,0,0,7.70313,47.853Z" transform="translate(-306.73021 -387.14606)"/>
      <path class="cls-3" d="M918.20321,476.13048c-37.46625,3.67152-77.26606,7.86988-116.19832,10.32805l199.43114-6.34972,141.02385,4.09923-86.81565-8.05279-67.55509-6.35109C964.75233,471.78835,941.05565,473.8911,918.20321,476.13048Z" transform="translate(-306.73021 -387.14606)"/>
      <polygon class="cls-4" points="821.158 28.018 806.602 25.108 805.426 93.684 820.162 95.061 821.158 28.018"/>
      <polygon class="cls-4" points="766.537 90.048 797.981 92.988 798.863 23.561 767.732 17.337 766.537 90.048"/>
      <path class="cls-1" d="M946.54007,557.17782c-16.84318-34.29514-3.56089-66.26663,3.71114-75.01146l-16.5763.54251c-2.58458,2.86125-7.234,13.14124-9.20636,26.54946-1.74392,11.85533-1.92837,29.77454,7.04837,47.908Z" transform="translate(-306.73021 -387.14606)"/>
      <path class="cls-2" d="M998.11686,557.30393c-5.62492-2.293-17.96366-7.54026-24.76666-20.15345-1.46789-2.72167-4.75471-12.03349-3.94359-22.07921,1.19579-14.80946,12.52024-28.15122,29.581-34.5L950.9659,482.059c-7.12019,8.01259-21.131,40.53746-3.93153,75.245Z" transform="translate(-306.73021 -387.14606)"/>
      <path class="cls-5" d="M1077.2914,558.00014l-2.51571.31007,1.8897,54.33145,31.265-5.56185a8.36894,8.36894,0,0,0,6.62274-8.4949l-.63185-40.48925Z" transform="translate(-306.73021 -387.14606)"/>
      <polygon class="cls-4" points="714.574 176.884 716.314 235.205 747 229.565 745.095 173.648 714.574 176.884"/>
      <polygon class="cls-4" points="769.505 225.429 767.579 171.264 753.28 172.78 755.19 228.06 769.505 225.429"/>
      <polygon class="cls-5" points="745.504 173.516 747.516 229.727 754.782 228.405 752.863 172.75 745.504 173.516"/>
      <polygon class="cls-6" points="798.586 93.044 804.821 93.627 805.999 24.987 799.467 23.682 798.586 93.044"/>
      <path class="cls-7" d="M1000.45315,626.88563l74.11777,4.10509,109.35716-15.1536a48.47993,48.47993,0,0,1,10.09793-.32092,20.0485,20.0485,0,0,0-2.04767-.52069l-1.07064-.158c-1.25556-.18925-2.33915-.33749-3.61364-.41733l-88.53524-5.4744Z" transform="translate(-306.73021 -387.14606)"/>
      <path class="cls-5" d="M936.14872,573.00194c2.27254,1.13347,5.30044,4.16494,5.3472,6.05017l1.48065,53.0482a6.85327,6.85327,0,0,1-3.58682,5.58935c.70895-.05419,2.13646-.00808,2.83943-.13649l80.26032-15.06324-1.77965-58.47873Z" transform="translate(-306.73021 -387.14606)"/>
      <path class="cls-6" d="M991.31757,387.86319a5.5443,5.5443,0,0,1,2.7743,4.79712l-.24781,67.55255c0,3.06965-2.16314,7.02143-4.941,9.19129l66.79737,6.14783,16.96191,1.58569,1.19623-72.77557-82.45636-16.48566C991.374,387.87064,991.34571,387.86869,991.31757,387.86319Z" transform="translate(-306.73021 -387.14606)"/>
      <path class="cls-8" d="M1174.02058,547.35185V496.62013l-157.09378-5.7846c-7.37944,5.83239-12.22185,15.64709-12.95775,26.28266a39.804,39.804,0,0,0,11.07825,30.66935Z" transform="translate(-306.73021 -387.14606)"/>
      <path class="cls-9" d="M1159.50911,485.86505l-9.28675-.86816-148.742-4.50718-.4973.01626c-17.80837,5.97721-30.09941,19.57961-31.31709,34.66293a43.89338,43.89338,0,0,0,4.21706,21.69416c6.95174,12.88863,19.30929,17.89789,24.58645,20.037.28595.11548.54621.2213.78281.319l180.46.62671v-9.90437l-165.39.45361-.02365-.00355c-.10764-.01715-.29334-.03075-.54706-.05027-14.505-1.1225-21.81717-10.80627-25.39758-18.73177a26.55748,26.55748,0,0,1-1.62047-14.14657c2.6649-17.00663,21.33518-24.12486,25.05042-25.37924l.11592-.039.05618.00178,167.75626,6.17729V485.89048l-17.07838-.51752A7.12562,7.12562,0,0,1,1159.50911,485.86505Z" transform="translate(-306.73021 -387.14606)"/>
      <path class="cls-10" d="M1016.2592,490.743l-4.13044-.21062-.14627-.0234c-3.65728,1.23428-22.273,8.35345-24.884,25.0147a26.87,26.87,0,0,0,1.65373,14.08795c3.5124,7.77706,10.7996,17.29,25.00885,18.39.17169.01305.75432-.01113.86587,0a40.95442,40.95442,0,0,1-10.9755-30.90223C1004.38121,506.55461,1009.04963,496.7246,1016.2592,490.743Z" transform="translate(-306.73021 -387.14606)"/>
      <path class="cls-2" d="M900.9482,557.31953a91.28494,91.28494,0,0,1-7.02058-47.5839c1.48892-12.61606,5.28884-22.58147,8.28818-26.07168l-125.20508,4.17227c-16.19787-.89835-28.10033,8.511-31.8413,25.15747-3.69455,16.44065,2.177,37.39495,18.395,44.04478Z" transform="translate(-306.73021 -387.14606)"/>
      <polygon class="cls-11" points="623.309 243.227 622.199 193.965 609.336 192.834 613.213 241.756 623.309 243.227"/>
      <path class="cls-12" d="M938.53558,637.68952l.92437-.44464a5.699,5.699,0,0,0,3.19047-5.14062l-1.48433-53.03655c-.04938-1.99305-4.331-5.88912-6.23441-6.04939L730.38723,555.48638l-.32178-.0078-2.48563.06167-.05694-.22574-.11486.24446-.01541.02643c-3.17588,0-4.70792,3.21514-5.20973,6.29521l6.43727.01469.02737.0176,200.51559,18.98016,1.02968,49.71738L724.12136,602.64515c.6843,2.0285,4.41831,4.94722,5.83293,5.49945a14.23516,14.23516,0,0,0,2.91939.82491l202.65475,28.51916A21.41068,21.41068,0,0,0,938.53558,637.68952Z" transform="translate(-306.73021 -387.14606)"/>
      <polygon class="cls-13" points="733.266 247.193 717.262 246.116 717.262 293.691 733.266 296.307 733.266 247.193"/>
      <polygon class="cls-14" points="612.635 236.752 422.013 210.959 417.543 215.148 612.985 241.822 612.635 236.752"/>
      <polygon class="cls-15" points="421.921 175.349 422.157 210.613 612.379 236.212 609.019 192.944 421.921 175.349"/>
      <path class="cls-4" d="M1074.73144,642.3354l.1585,39.02547a.60462.60462,0,0,0,.757.58254l116.36292-30.39123L1191.932,622.272,1076.2153,640.59428A1.756,1.756,0,0,0,1074.73144,642.3354Z" transform="translate(-306.73021 -387.14606)"/>
      <path class="cls-16" d="M1061.60626,685.956l-.09361-45.39972a8.66633,8.66633,0,0,1,7.53542-8.69381l3.08905-.63185L999.69621,627.171l-57.56844,10.51862a20.36243,20.36243,0,0,1-3.7209.30408,21.01,21.01,0,0,1-2.93694-.21062L784.53926,616.59269v29.90375a7.01714,7.01714,0,0,0,6.0923,6.73975l270.9279,38.87448a33.54723,33.54723,0,0,0,3.91982.19892C1063.44445,690.91611,1061.60626,688.10612,1061.60626,685.956Zm-21.004-1.79062-17.216-2.81394v-48.737l17.216,1.15857Z" transform="translate(-306.73021 -387.14606)"/>
      <path class="cls-17" d="M1197.02558,618.49086l-.07709-.11894a6.74637,6.74637,0,0,0-2.18931-2.2664l-.8678-.11013a41.13937,41.13937,0,0,0-9.98085.15266l-114.79225,15.9016a8.76,8.76,0,0,0-7.35406,8.489l.05266,45.48748c0,2.26969,2.21185,5.24681,4.48146,6.28341a29.46692,29.46692,0,0,0,6.75146-.87757l117.39571-32.008a7.02673,7.02673,0,0,0,1.45092-.65526,10.80138,10.80138,0,0,0,5.18642-6.37874l.09691-.42729-4.83676.02643-116.536,30.42139a1.24461,1.24461,0,0,1-.31717-.01762.91909.91909,0,0,1-.66076-.14537,1.09168,1.09168,0,0,1-.47134-.89423l.00261-38.98346a2.0236,2.0236,0,0,1,1.75515-2.19978L1191.931,621.84656l.15211-.06291,5.64041-.35847.09361-.85417A5.1515,5.1515,0,0,0,1197.02558,618.49086Z" transform="translate(-306.73021 -387.14606)"/>
      <path class="cls-18" d="M1071.71706,558.07352l-72.79283-.52387-235.33748-.12091-.26523-.0468a26.08445,26.08445,0,0,1-4.78959-2.582l-25.29747.60065L935.0994,572.952Z" transform="translate(-306.73021 -387.14606)"/>
      <polygon class="cls-19" points="469.176 44.71 473.537 47.78 663.939 15.259 664.148 10.292 469.176 44.71"/>
      <polygon class="cls-10" points="675.1 8.163 664.486 10.182 661.633 75.61 674.091 74.352 675.1 8.163"/>
      <polygon class="cls-4" points="473.768 48.354 473.768 94.901 661.409 75.397 663.913 15.877 473.768 48.354"/>
      <path class="cls-20" d="M990.67823,388.19492l-1.05987-.50433a9.13317,9.13317,0,0,0-1.69605.14679L785.03913,424.06846a13.32466,13.32466,0,0,0-2.63708,1.08789,12.56689,12.56689,0,0,0-2.088,1.30877l-5.23193,4.03668a.44036.44036,0,0,0-.183.55414.47256.47256,0,0,0,.15551.20063l.03058.02154a.43487.43487,0,0,0,.31037.05347l206.75451-36.49842-.00531.36609-.922,66.593-.268.02808L774.71339,483.25748c-.16913,1.67725-.03907,3.21552,2.32513,3.94885,47.84577-2.19946,95.2702-6.84613,141.1333-11.34057,22.82746-2.23706,46.43128-4.54987,69.799-6.53278,2.90943-1.93835,5.26764-6.01239,5.26764-9.12134l.24781-67.55365A4.94385,4.94385,0,0,0,990.67823,388.19492Z" transform="translate(-306.73021 -387.14606)"/>
      <path class="cls-21" d="M1191.94182,621.96489v4.3393l-117.18524,22.36688-.27678-6.56368a1.906,1.906,0,0,1,1.707-1.91664l51.39735-8.34844Z" transform="translate(-306.73021 -387.14606)"/>
      <path class="cls-22" d="M1021.58092,593.721,942.3026,605.16113l-.044-.03084-.61951-3.83472-.62982-22.256c-.03633-1.5322-2.51327-4.08177-4.51783-5.24456l-.26778-.92376,84.52-8.86886Z" transform="translate(-306.73021 -387.14606)"/>
      <path class="cls-23" d="M1174.022,496.62271V510.055H1005.08227l.36849-2.47192a34.90645,34.90645,0,0,1,9.08908-15.03365l2.38807-1.71634Z" transform="translate(-306.73021 -387.14606)"/>
      <path class="cls-23" d="M1174.22028,515.16635v6.32858H1003.488c-.03634-.87813.253-1.76129.27722-2.64549l-.02284-3.68309Z" transform="translate(-306.73021 -387.14606)"/>
      <path class="cls-24" d="M991.27076,387.82352l.75354.96277a4.45819,4.45819,0,0,1,1.60706,3.91052l.065,18.59.30334,6.68591v.02417l79.39484,14.50427.46637-28.13641-82.45923-16.49066Z" transform="translate(-306.73021 -387.14606)"/>
      <path class="cls-25" d="M998.98988,480.57417l-.72067.92659c-16.33316,6.39519-27.446,19.36725-28.60273,33.66559-.09086,1.09614-.12113,2.18626-.11507,3.25816l-.57533.74492H968.964l-29.94716.50869-.59351.01212c.63587-18.035,7.36418-32.15767,11.82749-37.52333l-16.57542.539c-2.586,2.8645-7.237,13.14165-9.20521,26.54972a88.5323,88.5323,0,0,0-.91447,10.68289l-.60561.01213-13.91073.23619-.60561.01209a81.56038,81.56038,0,0,1,1.03556-10.92511c2.12568-12.97206,6.86758-22.70414,9.88349-26.09556l-16.527.539c-3.75476,3.676-9.01748,18.38617-9.072,36.73l-.67221.01208-148.97894,2.52541v-4.74191l.92659-6.34673,2.90084-7.93951,2.89481-4.72978,3.74264-4.23924,3.86377-2.925,6.51025-3.03409,5.86832-1.35655Z" transform="translate(-306.73021 -387.14606)"/>
      <polygon class="cls-23" points="421.973 183.781 610.078 206.572 610.323 209.739 421.996 187.225 421.973 183.781"/>
      <polygon class="cls-23" points="421.96 180.866 609.877 203.988 609.019 192.941 421.923 175.348 421.96 180.866"/>
      <polygon class="cls-22" points="769.143 198.134 807.339 191.967 807.004 171.079 770.546 170.952 768.184 171.2 769.143 198.134"/>
      <polygon class="cls-22" points="746.638 201.149 753.616 200.048 752.957 172.75 745.439 173.458 746.638 201.149"/>
      <polygon class="cls-24" points="799.125 50.494 805.543 51.614 805.998 24.989 799.464 23.681 799.125 50.494"/>
      <polygon class="cls-26" points="473.769 48.353 473.769 54.528 663.267 31.217 663.911 15.88 473.769 48.353"/>
      <polygon class="cls-26" points="473.769 57.922 663.099 35.204 662.856 40.989 473.769 62.833 473.769 57.922"/>
      <path d="M1023.38628,681.35141l17.216,2.81394V633.77294l-17.216-1.15857Zm.6056-48.08886,16.00478,1.077v49.11378l-16.00478-2.61641Z" transform="translate(-306.73021 -387.14606)"/>
    </g>
    <g>
      <polygon class="cls-27" points="766.618 90.116 798.061 93.054 798.945 23.627 767.811 17.401 766.618 90.116"/>
      <path class="cls-27" d="M988.13336,469.99525c-23.34,1.98639-46.9707,4.29981-69.82019,6.54059-37.46881,3.67-75.9732,7.44287-114.90759,9.90161l198.154-6.486,139.15,4.215L1055.725,476.2209Z" transform="translate(-306.73021 -387.14606)"/>
      <polygon class="cls-27" points="821.238 28.084 806.685 25.177 805.504 93.75 820.244 95.131 821.238 28.084"/>
      <polygon class="cls-27" points="798.667 93.114 804.904 93.696 806.079 25.056 799.545 23.748 798.667 93.114"/>
      <path class="cls-27" d="M997.72015,557.28724c-5.62609-2.29522-17.48382-7.455-24.29083-20.06976a44.97621,44.97621,0,0,1-4.38464-17.98041,36.44745,36.44745,0,0,1,.09692-4.05151c1.1991-14.80707,12.863-28.197,29.929-34.54376l-47.91547,1.5625c-4.40277,4.9599-11.40967,19.19165-12.05762,37.54144a77.61368,77.61368,0,0,0,8.19385,37.49908Z" transform="translate(-306.73021 -387.14606)"/>
      <path class="cls-27" d="M1174.10272,547.422V496.69038l-157.09405-5.78961a35.26823,35.26823,0,0,0-11.8396,19.22192,40.66034,40.66034,0,0,0-.93866,5.11133c-.0727.648-.13324,1.296-.1817,1.95007a40.73086,40.73086,0,0,0-.0727,4.37848,39.76176,39.76176,0,0,0,11.14923,26.29541Z" transform="translate(-306.73021 -387.14606)"/>
      <path class="cls-27" d="M901.4046,557.20851l15.6004.01214a74.62831,74.62831,0,0,1-8.49053-36.9541,81.55275,81.55275,0,0,1,1.03558-10.92511c2.12567-12.972,6.86755-22.7041,9.88348-26.09552l-16.527.539c-3.75477,3.676-9.01746,18.38617-9.072,36.73A88.62066,88.62066,0,0,0,901.4046,557.20851Z" transform="translate(-306.73021 -387.14606)"/>
      <polygon class="cls-27" points="821.843 28.205 821.843 28.207 821.843 28.207 821.843 28.205"/>
      <path class="cls-27" d="M946.61914,557.24482a78.14146,78.14146,0,0,1-8.11511-37.48693c.63586-18.035,7.3642-32.15766,11.82745-37.52332l-16.57538.539c-2.58593,2.8645-7.237,13.14166-9.2052,26.54968a88.52222,88.52222,0,0,0-.91449,10.68293,78.88916,78.88916,0,0,0,7.96375,37.22656Z" transform="translate(-306.73021 -387.14606)"/>
      <path class="cls-27" d="M930.92792,557.23274a79.58336,79.58336,0,0,1-7.8971-37.21442,87.40821,87.40821,0,0,1,.92053-10.77978c1.90156-12.92365,6.30433-23.013,8.99323-26.4347l-12.65112.41181c-2.82819,2.74945-7.96369,12.88122-10.14392,26.22272a81.092,81.092,0,0,0-1.02948,10.8161,73.98214,73.98214,0,0,0,8.56323,36.96618Z" transform="translate(-306.73021 -387.14606)"/>
      <polygon class="cls-27" points="714.657 176.954 716.395 235.274 747.081 229.63 745.173 173.714 714.657 176.954"/>
      <path class="cls-27" d="M1002.28033,626.86525l72.37592,4.07574,109.28754-15.2431a41.224,41.224,0,0,1,9.34448-.23621,7.25193,7.25193,0,0,0-1.19306-.27856l-.92047-.13928c-1.2536-.18775-2.53747-.327-3.80926-.40577l-88.50318-5.52313Z" transform="translate(-306.73021 -387.14606)"/>
      <polygon class="cls-27" points="745.779 173.654 747.681 229.521 754.669 228.237 752.756 172.915 745.779 173.654"/>
      <path class="cls-27" d="M1003.62482,515.234a41.269,41.269,0,0,1,1.623-7.63061,36.25174,36.25174,0,0,1,9.27185-15.32184c.50867-.49054,1.04157-.96295,1.58057-1.41107l-4.03326-.15137-.00611.006c-3.65783,1.23541-22.038,8.23621-24.64813,24.89642a25.88035,25.88035,0,0,0,1.57458,13.8078c3.51252,7.776,10.68287,17.278,24.89039,18.37409.17559.01208.30279.02423.41784.03631a40.26537,40.26537,0,0,1-10.92511-26.27722c-.03637-.87811-.03637-1.76227-.01208-2.64648.01812-.5874.04236-1.18091.08478-1.77442Q1003.50665,516.17873,1003.62482,515.234Z" transform="translate(-306.73021 -387.14606)"/>
      <path class="cls-27" d="M1147.9527,418.60963l15.74573,3.14917a5.614,5.614,0,0,1,4.51782,5.64429l-.02423,1.24145,2.53338-1.00549-.6947-2.85193.6947,2.85193" transform="translate(-306.73021 -387.14606)"/>
      <path class="cls-27" d="M1077.35724,558.16536l-2.36188.24829,1.92584,54.11694,30.91614-5.6806a8.03315,8.03315,0,0,0,6.62531-8.1817l-.648-40.37574Z" transform="translate(-306.73021 -387.14606)"/>
      <path class="cls-27" d="M1159.59241,485.93483l-9.29-.87207-148.7428-4.50574-.49658.01819c-.92047.30884-1.82282.63586-2.71307.99322-16.3332,6.3952-27.44605,19.36725-28.60279,33.66559-.09082,1.09613-.12109,2.18622-.115,3.25812a44.39727,44.39727,0,0,0,4.33008,18.44073c6.95239,12.88727,19.31274,17.89563,24.58758,20.03345.28461.115.545.22406.78125.32092l180.46436.62378v-9.90167l-165.39087.45422-.02417-.006c-.10907-.01819-.29681-.03027-.5451-.04846-14.51032-1.12036-21.82-10.804-25.399-18.73138a26.56789,26.56789,0,0,1-1.62305-14.147c2.66467-17.00537,21.33545-24.12726,25.0539-25.38086l.115-.03637h.05456l167.75873,6.17718v-10.3316l-17.07806-.52088A7.14919,7.14919,0,0,1,1159.59241,485.93483Z" transform="translate(-306.73021 -387.14606)"/>
      <path class="cls-27" d="M936.43286,573.10566c2.271,1.13245,5.21423,4.1,5.2627,5.98944l.73883,26.08344.006.01813.76312,26.94946a6.11642,6.11642,0,0,1-3.13708,5.40808,19.28367,19.28367,0,0,0,2.11963-.26044l80.33361-14.76464-.81762-27.3794-.92053-30.98883Z" transform="translate(-306.73021 -387.14606)"/>
      <polygon class="cls-27" points="769.585 225.494 767.66 171.334 753.361 172.848 755.269 228.128 769.585 225.494"/>
      <path class="cls-27" d="M1158.243,484.699l4.36524.1336a6.379,6.379,0,0,0,.70581-.37329,6.55338,6.55338,0,0,1-.70691.372Z" transform="translate(-306.73021 -387.14606)"/>
      <polygon class="cls-27" points="469.26 44.775 473.62 47.845 664.022 15.324 664.228 10.358 469.26 44.775"/>
      <polygon class="cls-27" points="422.004 175.416 422.24 210.68 612.461 236.279 609.1 193.009 422.004 175.416"/>
      <polygon class="cls-27" points="612.509 236.897 422.041 211.262 417.971 215.138 612.873 241.633 612.509 236.897"/>
      <path class="cls-27" d="M1071.79779,558.14119l-72.85437-.24836-235.417-.18164-.05445-.02423a27.24623,27.24623,0,0,1-4.89941-2.61621l-23.1159.46027,199.547,17.11438Z" transform="translate(-306.73021 -387.14606)"/>
      <polygon class="cls-27" points="674.887 8.481 664.84 10.249 662.096 75.4 673.972 74.165 674.887 8.481"/>
      <path class="cls-27" d="M991.549,388.74122a4.33608,4.33608,0,0,0-.78729-.47845l-1.05982-.50263a8.92505,8.92505,0,0,0-1.70172.14533l-202.8778,36.2334a12.96654,12.96654,0,0,0-2.64051,1.084,12.81076,12.81076,0,0,0-2.08929,1.30811l-5.23242,4.03943a.43972.43972,0,0,0-.18171.55108.42421.42421,0,0,0,.15741.19983l.03034.02423a.42214.42214,0,0,0,.30884.05451l206.75372-36.49982-.0061.36945-.92047,66.59234-.26648.02423-206.239,21.43842c-.16955,1.67755-.04242,3.21576,2.32556,3.94855,47.84284-2.19837,95.26777-6.84333,141.13025-11.33692,22.82526-2.24072,46.43183-4.55414,69.796-6.53448,2.913-1.938,5.2688-6.01368,5.2688-9.12043L993.499,411.306l.06665-18.57995A4.92523,4.92523,0,0,0,991.549,388.74122Z" transform="translate(-306.73021 -387.14606)"/>
      <polygon class="cls-27" points="473.85 48.421 473.85 94.967 661.491 75.467 663.992 15.948 473.85 48.421"/>
      <path class="cls-27" d="M1075.87958,682.59913a1.34454,1.34454,0,0,1-.3089.03638,1.20507,1.20507,0,0,1-1.20514-1.2052l-.15747-39.02521a1.57467,1.57467,0,0,1,.01819-.24225,2.3405,2.3405,0,0,1,1.97424-2.10144l51.46442-8.15142,64.34558-10.18628v-.01819l5.69873-.43-.04242-.55719a5.22352,5.22352,0,0,0-.60559-2.13775l-.05451-.09693a6.70833,6.70833,0,0,0-2.18017-2.26495l-.84784-.09082a41.12928,41.12928,0,0,0-9.95007.16956l-114.82282,16.0122a8.41648,8.41648,0,0,0-7.17645,8.309l.109,45.44458a7.74144,7.74144,0,0,0,4.2453,6.165,27.22226,27.22226,0,0,0,6.486-.96289l117.59644-31.93963a6.45531,6.45531,0,0,0,1.42926-.56928,10.63254,10.63254,0,0,0,5.15374-6.32251l.09687-.327-4.71161.04847Z" transform="translate(-306.73021 -387.14606)"/>
      <path class="cls-27" d="M1076.29742,640.661a1.75878,1.75878,0,0,0-1.4837,1.74414l.01813,4.99622.13934,34.029a.58515.58515,0,0,0,.23615.47235.59475.59475,0,0,0,.52081.109l116.36108-30.38928-.06665-25.66553-.01208-3.61548Z" transform="translate(-306.73021 -387.14606)"/>
      <path class="cls-27" d="M938.59485,637.6208l.86-.4118a5.5248,5.5248,0,0,0,3.14307-5.05072l-.87811-30.795-.62982-22.256c-.03632-1.53223-2.51331-4.08179-4.51783-5.24457a4.11235,4.11235,0,0,0-1.59277-.61169L730.17572,555.68238l-2.592.00116c-3.16119.01246-4.79132,3.17225-5.293,6.24268h6.43756v.03027l200.625,18.86457,1.21118,50.05938L724.44067,602.85908c.68433,2.02875,4.209,4.70557,5.62,5.25659a13.67989,13.67989,0,0,0,2.89484.79944L935.6637,637.427A20.663,20.663,0,0,0,938.59485,637.6208Z" transform="translate(-306.73021 -387.14606)"/>
      <polygon class="cls-27" points="623.211 243.038 622.03 194.226 609.712 193.069 613.491 241.718 623.211 243.038"/>
      <path class="cls-27" d="M1061.53278,686.06318l-.109-45.44458a9.02761,9.02761,0,0,1,7.6972-8.90851l2.44061-.33911-71.80664-4.03936-57.45984,10.5617a21.14608,21.14608,0,0,1-6.71612.13324L784.80743,616.81825v29.493a6.9141,6.9141,0,0,0,5.89856,6.807l270.92975,38.84356a27.92432,27.92432,0,0,0,3.54279.27857A8.42422,8.42422,0,0,1,1061.53278,686.06318Z" transform="translate(-306.73021 -387.14606)"/>
      <path class="cls-27" d="M900.74451,557.20851a88.53819,88.53819,0,0,1-7.58216-36.68152,93.84844,93.84844,0,0,1,.648-10.73737c1.48981-12.6148,5.24451-22.48614,8.24225-25.97442L777.092,487.903c-16.19995-.8963-28.10016,8.51483-31.84277,25.15686a44.84683,44.84683,0,0,0-1.06586,9.81085v.18164c.05451,14.08032,6.40729,28.69965,19.46417,34.05316Z" transform="translate(-306.73021 -387.14606)"/>
      <path class="cls-27" d="M991.39758,387.9297l.09082.0545a5.55334,5.55334,0,0,1,2.68293,4.74189l-.09089,25.31433v.02417l-.15747,42.21679c0,3.07044-2.162,7.019-4.94171,9.19306l66.79828,6.14691,16.963,1.58667.73273-44.63916.46637-28.13641-82.45923-16.49067C991.45209,387.93574,991.42786,387.93574,991.39758,387.9297Z" transform="translate(-306.73021 -387.14606)"/>
      <path class="cls-6" d="M1166.63562,478.47981l.63861-33.46375-.1048,3.67676-38.97918-7.50757.383-25.83245h0l-.99322,66.97869,22.75867,2.12561,7.90429.24189,4.36414.13226a6.55338,6.55338,0,0,0,.70691-.372,6.37991,6.37991,0,0,0,1.14135-.8197A7.07329,7.07329,0,0,0,1166.63562,478.47981Z" transform="translate(-306.73021 -387.14606)"/>
      <path class="cls-28" d="M1167.60938,427.39241l-.2945,15.49383.29572-15.4953a5.0009,5.0009,0,0,0-2.5951-4.49823A4.99865,4.99865,0,0,1,1167.60938,427.39241Z" transform="translate(-306.73021 -387.14606)"/>
      <polygon class="cls-28" points="841.169 32.071 821.843 28.205 821.843 28.207 841.169 32.071"/>
      <path class="cls-24" d="M1128.19025,441.18525l38.97918,7.50757.1048-3.67676.04065-2.12982.2945-15.49383a5.07956,5.07956,0,0,0-4.03211-5.0401l-15.67761-3.1355-19.32636-3.864Z" transform="translate(-306.73021 -387.14606)"/>
      <path class="cls-29" d="M727.60193,555.37959l-.05573.30395h.03754l.01819-.00116Z" transform="translate(-306.73021 -387.14606)"/>
      <polygon class="cls-29" points="820.85 95.185 821.843 28.207 821.842 28.207 820.847 95.186 843.609 97.313 851.513 97.553 843.609 97.311 820.85 95.185"/>
      <path class="cls-29" d="M1166.63562,478.47981a7.07329,7.07329,0,0,1-2.18018,5.15979,6.37991,6.37991,0,0,1-1.14135.8197,6.16644,6.16644,0,0,0,1.14068-.8183,7.08918,7.08918,0,0,0,2.18354-5.15832l.63641-33.48383-.00049.01721Z" transform="translate(-306.73021 -387.14606)"/>
      <path class="cls-29" d="M1147.89966,419.21681l15.68042,3.135a5.08614,5.08614,0,0,1,4.03052,5.03912l-.29572,15.4953-.04016,2.11261.56238-19.7287-2.61542-2.71527-36.64838-7.20337Z" transform="translate(-306.73021 -387.14606)"/>
      <polygon class="cls-29" points="860.544 57.87 860.545 57.853 860.585 55.74 860.544 57.87"/>
      <path class="cls-29" d="M1165.0155,422.89271a5.00082,5.00082,0,0,0-1.43542-.54089l-15.68042-3.135,15.67761,3.1355A4.99706,4.99706,0,0,1,1165.0155,422.89271Z" transform="translate(-306.73021 -387.14606)"/>
    </g>
    <g>
      <path class="cls-27" d="M1140.70966,484.16645,1055.725,476.2209l-67.59162-6.22565c-23.34,1.98639-46.9707,4.29981-69.82019,6.54059-37.46881,3.67-75.9732,7.44287-114.90759,9.90161l198.154-6.486Z" transform="translate(-306.73021 -387.14606)"/>
      <path class="cls-27" d="M901.4046,557.20851l15.6004.01214a74.62831,74.62831,0,0,1-8.49053-36.9541,81.55275,81.55275,0,0,1,1.03558-10.92511c2.12567-12.972,6.86755-22.7041,9.88348-26.09552l-16.527.539c-3.75477,3.676-9.01746,18.38617-9.072,36.73A88.62066,88.62066,0,0,0,901.4046,557.20851Z" transform="translate(-306.73021 -387.14606)"/>
      <path class="cls-27" d="M930.92792,557.23274a79.58336,79.58336,0,0,1-7.8971-37.21442,87.40821,87.40821,0,0,1,.92053-10.77978c1.90156-12.92365,6.30433-23.013,8.99323-26.4347l-12.65112.41181c-2.82819,2.74945-7.96369,12.88122-10.14392,26.22272a81.092,81.092,0,0,0-1.02948,10.8161,73.98214,73.98214,0,0,0,8.56323,36.96618Z" transform="translate(-306.73021 -387.14606)"/>
      <path class="cls-27" d="M1003.62482,515.234a41.269,41.269,0,0,1,1.623-7.63061,36.25174,36.25174,0,0,1,9.27185-15.32184c.50867-.49054,1.04157-.96295,1.58057-1.41107l-4.03326-.15137-.00611.006c-3.65783,1.23541-22.038,8.23621-24.64813,24.89642a25.88035,25.88035,0,0,0,1.57458,13.8078c3.51252,7.776,10.68287,17.278,24.89039,18.37409.17559.01208.30279.02423.41784.03631a40.26537,40.26537,0,0,1-10.92511-26.27722c-.03637-.87811-.03637-1.76227-.01208-2.64648.01812-.5874.04236-1.18091.08478-1.77442Q1003.50665,516.17873,1003.62482,515.234Z" transform="translate(-306.73021 -387.14606)"/>
      <polygon class="cls-27" points="820.244 95.131 821.238 28.084 806.685 25.177 805.504 93.75 820.244 95.131"/>
      <path class="cls-27" d="M1150.33905,484.45948l7.904.23951,4.36524.1336a6.379,6.379,0,0,0,.70581-.37329,6.16644,6.16644,0,0,0,1.14068-.8183,7.08918,7.08918,0,0,0,2.18354-5.15832l.63641-33.48383.56238-19.7287-2.61542-2.71527-36.64838-7.20337v.00129l-.00067-.00013-.99524,66.979Z" transform="translate(-306.73021 -387.14606)"/>
      <path class="cls-27" d="M997.72015,557.28724c-5.62609-2.29522-17.48382-7.455-24.29083-20.06976a44.97621,44.97621,0,0,1-4.38464-17.98041,36.44745,36.44745,0,0,1,.09692-4.05151c1.1991-14.80707,12.863-28.197,29.929-34.54376l-47.91547,1.5625c-4.40277,4.9599-11.40967,19.19165-12.05762,37.54144a77.61368,77.61368,0,0,0,8.19385,37.49908Z" transform="translate(-306.73021 -387.14606)"/>
      <path class="cls-27" d="M946.61914,557.24482a78.14146,78.14146,0,0,1-8.11511-37.48693c.63586-18.035,7.3642-32.15766,11.82745-37.52332l-16.57538.539c-2.58593,2.8645-7.237,13.14166-9.2052,26.54968a88.52222,88.52222,0,0,0-.91449,10.68293,78.88916,78.88916,0,0,0,7.96375,37.22656Z" transform="translate(-306.73021 -387.14606)"/>
      <path class="cls-27" d="M1002.28033,626.86525l72.37592,4.07574,109.28754-15.2431a41.224,41.224,0,0,1,9.34448-.23621,7.25193,7.25193,0,0,0-1.19306-.27856l-.92047-.13928c-1.2536-.18775-2.53747-.327-3.80926-.40577l-88.50318-5.52313Z" transform="translate(-306.73021 -387.14606)"/>
      <polygon class="cls-27" points="804.904 93.696 806.079 25.056 799.545 23.748 798.667 93.114 804.904 93.696"/>
      <polygon class="cls-27" points="745.779 173.654 747.681 229.521 754.669 228.237 752.756 172.915 745.779 173.654"/>
      <path class="cls-27" d="M1147.9527,418.60963l15.74573,3.14917a5.614,5.614,0,0,1,4.51782,5.64429l-.02423,1.24145,2.53338-1.00549" transform="translate(-306.73021 -387.14606)"/>
      <polygon class="cls-27" points="769.585 225.494 767.66 171.334 753.361 172.848 755.269 228.128 769.585 225.494"/>
      <path class="cls-27" d="M1077.35724,558.16536l-2.36188.24829,1.92584,54.11694,30.91614-5.6806a8.03315,8.03315,0,0,0,6.62531-8.1817l-.648-40.37574Z" transform="translate(-306.73021 -387.14606)"/>
      <path class="cls-27" d="M1159.59241,485.93483l-9.29-.87207-148.7428-4.50574-.49658.01819c-.92047.30884-1.82282.63586-2.71307.99322-16.3332,6.3952-27.44605,19.36725-28.60279,33.66559-.09082,1.09613-.12109,2.18622-.115,3.25812a44.39727,44.39727,0,0,0,4.33008,18.44073c6.95239,12.88727,19.31274,17.89563,24.58758,20.03345.28461.115.545.22406.78125.32092l180.46436.62378v-9.90167l-165.39087.45422-.02417-.006c-.10907-.01819-.29681-.03027-.5451-.04846-14.51032-1.12036-21.82-10.804-25.399-18.73138a26.56789,26.56789,0,0,1-1.62305-14.147c2.66467-17.00537,21.33545-24.12726,25.0539-25.38086l.115-.03637h.05456l167.75873,6.17718v-10.3316l-17.07806-.52088A7.14919,7.14919,0,0,1,1159.59241,485.93483Z" transform="translate(-306.73021 -387.14606)"/>
      <path class="cls-27" d="M936.43286,573.10566c2.271,1.13245,5.21423,4.1,5.2627,5.98944l.73883,26.08344.006.01813.76312,26.94946a6.11642,6.11642,0,0,1-3.13708,5.40808,19.28367,19.28367,0,0,0,2.11963-.26044l80.33361-14.76464-.81762-27.3794-.92053-30.98883Z" transform="translate(-306.73021 -387.14606)"/>
      <polygon class="cls-27" points="714.657 176.954 716.395 235.274 747.081 229.63 745.173 173.714 714.657 176.954"/>
      <path class="cls-27" d="M1174.10272,547.422V496.69038l-157.09405-5.78961a35.26823,35.26823,0,0,0-11.8396,19.22192,40.66034,40.66034,0,0,0-.93866,5.11133c-.0727.648-.13324,1.296-.1817,1.95007a40.73086,40.73086,0,0,0-.0727,4.37848,39.76176,39.76176,0,0,0,11.14923,26.29541Z" transform="translate(-306.73021 -387.14606)"/>
      <path class="cls-27" d="M938.59485,637.6208l.86-.4118a5.5248,5.5248,0,0,0,3.14307-5.05072l-.87811-30.795-.62982-22.256c-.03632-1.53223-2.51331-4.08179-4.51783-5.24457a4.11235,4.11235,0,0,0-1.59277-.61169L730.17572,555.68238l-2.592.00116c-3.16119.01246-4.79132,3.17225-5.293,6.24268h6.43756v.03027l200.625,18.86457,1.21118,50.05938L724.44067,602.85908c.68433,2.02875,4.209,4.70557,5.62,5.25659a13.67989,13.67989,0,0,0,2.89484.79944L935.6637,637.427A20.663,20.663,0,0,0,938.59485,637.6208Z" transform="translate(-306.73021 -387.14606)"/>
      <path class="cls-27" d="M727.60193,555.37959l-.05573.30395h.03754l.01819-.00116Z" transform="translate(-306.73021 -387.14606)"/>
      <path class="cls-27" d="M1061.53278,686.06318l-.109-45.44458a9.02761,9.02761,0,0,1,7.6972-8.90851l2.44061-.33911-71.80664-4.03936-57.45984,10.5617a21.14608,21.14608,0,0,1-6.71612.13324L784.80743,616.81825v29.493a6.9141,6.9141,0,0,0,5.89856,6.807l270.92975,38.84356a27.92432,27.92432,0,0,0,3.54279.27857A8.42422,8.42422,0,0,1,1061.53278,686.06318Z" transform="translate(-306.73021 -387.14606)"/>
      <polygon class="cls-27" points="623.211 243.038 622.03 194.226 609.712 193.069 613.491 241.718 623.211 243.038"/>
      <path class="cls-27" d="M1075.87958,682.59913a1.34454,1.34454,0,0,1-.3089.03638,1.20507,1.20507,0,0,1-1.20514-1.2052l-.15747-39.02521a1.57467,1.57467,0,0,1,.01819-.24225,2.3405,2.3405,0,0,1,1.97424-2.10144l51.46442-8.15142,64.34558-10.18628v-.01819l5.69873-.43-.04242-.55719a5.22352,5.22352,0,0,0-.60559-2.13775l-.05451-.09693a6.70833,6.70833,0,0,0-2.18017-2.26495l-.84784-.09082a41.12928,41.12928,0,0,0-9.95007.16956l-114.82282,16.0122a8.41648,8.41648,0,0,0-7.17645,8.309l.109,45.44458a7.74144,7.74144,0,0,0,4.2453,6.165,27.22226,27.22226,0,0,0,6.486-.96289l117.59644-31.93963a6.45531,6.45531,0,0,0,1.42926-.56928,10.63254,10.63254,0,0,0,5.15374-6.32251l.09687-.327-4.71161.04847Z" transform="translate(-306.73021 -387.14606)"/>
      <polygon class="cls-27" points="798.061 93.054 798.945 23.627 767.811 17.401 766.618 90.116 798.061 93.054"/>
      <path class="cls-27" d="M1076.29742,640.661a1.75878,1.75878,0,0,0-1.4837,1.74414l.01813,4.99622.13934,34.029a.58515.58515,0,0,0,.23615.47235.59475.59475,0,0,0,.52081.109l116.36108-30.38928-.06665-25.66553-.01208-3.61548Z" transform="translate(-306.73021 -387.14606)"/>
      <polygon class="cls-27" points="422.004 175.416 422.24 210.68 612.461 236.279 609.1 193.009 422.004 175.416"/>
      <polygon class="cls-27" points="674.887 8.481 664.84 10.249 662.096 75.4 673.972 74.165 674.887 8.481"/>
      <polygon class="cls-27" points="469.26 44.775 473.62 47.845 664.022 15.324 664.228 10.358 469.26 44.775"/>
      <path class="cls-27" d="M991.39758,387.9297l.09082.0545a5.55334,5.55334,0,0,1,2.68293,4.74189l-.09089,25.31433v.02417l-.15747,42.21679c0,3.07044-2.162,7.019-4.94171,9.19306l66.79828,6.14691,16.963,1.58667.73273-44.63916.46637-28.13641-82.45923-16.49067C991.45209,387.93574,991.42786,387.93574,991.39758,387.9297Z" transform="translate(-306.73021 -387.14606)"/>
      <polygon class="cls-27" points="473.85 48.421 473.85 94.967 661.491 75.467 663.992 15.948 473.85 48.421"/>
      <polygon class="cls-27" points="612.509 236.897 422.041 211.262 417.971 215.138 612.873 241.633 612.509 236.897"/>
      <path class="cls-27" d="M1071.79779,558.14119l-72.85437-.24836-235.417-.18164-.05445-.02423a27.24623,27.24623,0,0,1-4.89941-2.61621l-23.1159.46027,199.547,17.11438Z" transform="translate(-306.73021 -387.14606)"/>
      <path class="cls-27" d="M991.549,388.74122a4.33608,4.33608,0,0,0-.78729-.47845l-1.05982-.50263a8.92505,8.92505,0,0,0-1.70172.14533l-202.8778,36.2334a12.96654,12.96654,0,0,0-2.64051,1.084,12.81076,12.81076,0,0,0-2.08929,1.30811l-5.23242,4.03943a.43972.43972,0,0,0-.18171.55108.42421.42421,0,0,0,.15741.19983l.03034.02423a.42214.42214,0,0,0,.30884.05451l206.75372-36.49982-.0061.36945-.92047,66.59234-.26648.02423-206.239,21.43842c-.16955,1.67755-.04242,3.21576,2.32556,3.94855,47.84284-2.19837,95.26777-6.84333,141.13025-11.33692,22.82526-2.24072,46.43183-4.55414,69.796-6.53448,2.913-1.938,5.2688-6.01368,5.2688-9.12043L993.499,411.306l.06665-18.57995A4.92523,4.92523,0,0,0,991.549,388.74122Z" transform="translate(-306.73021 -387.14606)"/>
      <path class="cls-27" d="M900.74451,557.20851a88.53819,88.53819,0,0,1-7.58216-36.68152,93.84844,93.84844,0,0,1,.648-10.73737c1.48981-12.6148,5.24451-22.48614,8.24225-25.97442L777.092,487.903c-16.19995-.8963-28.10016,8.51483-31.84277,25.15686a44.84683,44.84683,0,0,0-1.06586,9.81085v.18164c.05451,14.08032,6.40729,28.69965,19.46417,34.05316Z" transform="translate(-306.73021 -387.14606)"/>
    </g>
    <g>
      <path class="cls-27" d="M1140.70966,484.16645,1055.725,476.2209l-67.59162-6.22565c-23.34,1.98639-46.9707,4.29981-69.82019,6.54059-37.46881,3.67-75.9732,7.44287-114.90759,9.90161l198.154-6.486Z" transform="translate(-306.73021 -387.14606)"/>
      <path class="cls-27" d="M930.92792,557.23274a79.58336,79.58336,0,0,1-7.8971-37.21442,87.40821,87.40821,0,0,1,.92053-10.77978c1.90156-12.92365,6.30433-23.013,8.99323-26.4347l-12.65112.41181c-2.82819,2.74945-7.96369,12.88122-10.14392,26.22272a81.092,81.092,0,0,0-1.02948,10.8161,73.98214,73.98214,0,0,0,8.56323,36.96618Z" transform="translate(-306.73021 -387.14606)"/>
      <path class="cls-27" d="M901.4046,557.20851l15.6004.01214a74.62831,74.62831,0,0,1-8.49053-36.9541,81.55275,81.55275,0,0,1,1.03558-10.92511c2.12567-12.972,6.86755-22.7041,9.88348-26.09552l-16.527.539c-3.75477,3.676-9.01746,18.38617-9.072,36.73A88.62066,88.62066,0,0,0,901.4046,557.20851Z" transform="translate(-306.73021 -387.14606)"/>
      <polygon class="cls-27" points="804.904 93.696 806.079 25.056 799.545 23.748 798.667 93.114 804.904 93.696"/>
      <path class="cls-27" d="M1150.33905,484.45948l7.904.23951,4.36524.1336a6.379,6.379,0,0,0,.70581-.37329,6.16644,6.16644,0,0,0,1.14068-.8183,7.08918,7.08918,0,0,0,2.18354-5.15832l.63641-33.48383.56238-19.7287-2.61542-2.71527-36.64838-7.20337v.00129l-.00067-.00013-.99524,66.979Z" transform="translate(-306.73021 -387.14606)"/>
      <polygon class="cls-27" points="820.244 95.131 821.238 28.084 806.685 25.177 805.504 93.75 820.244 95.131"/>
      <path class="cls-27" d="M1174.10272,547.422V496.69038l-157.09405-5.78961a35.26823,35.26823,0,0,0-11.8396,19.22192,40.66034,40.66034,0,0,0-.93866,5.11133c-.0727.648-.13324,1.296-.1817,1.95007a40.73086,40.73086,0,0,0-.0727,4.37848,39.76176,39.76176,0,0,0,11.14923,26.29541Z" transform="translate(-306.73021 -387.14606)"/>
      <path class="cls-27" d="M997.72015,557.28724c-5.62609-2.29522-17.48382-7.455-24.29083-20.06976a44.97621,44.97621,0,0,1-4.38464-17.98041,36.44745,36.44745,0,0,1,.09692-4.05151c1.1991-14.80707,12.863-28.197,29.929-34.54376l-47.91547,1.5625c-4.40277,4.9599-11.40967,19.19165-12.05762,37.54144a77.61368,77.61368,0,0,0,8.19385,37.49908Z" transform="translate(-306.73021 -387.14606)"/>
      <path class="cls-27" d="M946.61914,557.24482a78.14146,78.14146,0,0,1-8.11511-37.48693c.63586-18.035,7.3642-32.15766,11.82745-37.52332l-16.57538.539c-2.58593,2.8645-7.237,13.14166-9.2052,26.54968a88.52222,88.52222,0,0,0-.91449,10.68293,78.88916,78.88916,0,0,0,7.96375,37.22656Z" transform="translate(-306.73021 -387.14606)"/>
      <polygon class="cls-27" points="745.779 173.654 747.681 229.521 754.669 228.237 752.756 172.915 745.779 173.654"/>
      <path class="cls-27" d="M1003.62482,515.234a41.269,41.269,0,0,1,1.623-7.63061,36.25174,36.25174,0,0,1,9.27185-15.32184c.50867-.49054,1.04157-.96295,1.58057-1.41107l-4.03326-.15137-.00611.006c-3.65783,1.23541-22.038,8.23621-24.64813,24.89642a25.88035,25.88035,0,0,0,1.57458,13.8078c3.51252,7.776,10.68287,17.278,24.89039,18.37409.17559.01208.30279.02423.41784.03631a40.26537,40.26537,0,0,1-10.92511-26.27722c-.03637-.87811-.03637-1.76227-.01208-2.64648.01812-.5874.04236-1.18091.08478-1.77442Q1003.50665,516.17873,1003.62482,515.234Z" transform="translate(-306.73021 -387.14606)"/>
      <path class="cls-27" d="M1002.28033,626.86525l72.37592,4.07574,109.28754-15.2431a41.224,41.224,0,0,1,9.34448-.23621,7.25193,7.25193,0,0,0-1.19306-.27856l-.92047-.13928c-1.2536-.18775-2.53747-.327-3.80926-.40577l-88.50318-5.52313Z" transform="translate(-306.73021 -387.14606)"/>
      <polygon class="cls-27" points="769.585 225.494 767.66 171.334 753.361 172.848 755.269 228.128 769.585 225.494"/>
      <path class="cls-27" d="M1077.35724,558.16536l-2.36188.24829,1.92584,54.11694,30.91614-5.6806a8.03315,8.03315,0,0,0,6.62531-8.1817l-.648-40.37574Z" transform="translate(-306.73021 -387.14606)"/>
      <path class="cls-27" d="M1159.59241,485.93483l-9.29-.87207-148.7428-4.50574-.49658.01819c-.92047.30884-1.82282.63586-2.71307.99322-16.3332,6.3952-27.44605,19.36725-28.60279,33.66559-.09082,1.09613-.12109,2.18622-.115,3.25812a44.39727,44.39727,0,0,0,4.33008,18.44073c6.95239,12.88727,19.31274,17.89563,24.58758,20.03345.28461.115.545.22406.78125.32092l180.46436.62378v-9.90167l-165.39087.45422-.02417-.006c-.10907-.01819-.29681-.03027-.5451-.04846-14.51032-1.12036-21.82-10.804-25.399-18.73138a26.56789,26.56789,0,0,1-1.62305-14.147c2.66467-17.00537,21.33545-24.12726,25.0539-25.38086l.115-.03637h.05456l167.75873,6.17718v-10.3316l-17.07806-.52088A7.14919,7.14919,0,0,1,1159.59241,485.93483Z" transform="translate(-306.73021 -387.14606)"/>
      <polygon class="cls-27" points="714.657 176.954 716.395 235.274 747.081 229.63 745.173 173.714 714.657 176.954"/>
      <path class="cls-27" d="M936.43286,573.10566c2.271,1.13245,5.21423,4.1,5.2627,5.98944l.73883,26.08344.006.01813.76312,26.94946a6.11642,6.11642,0,0,1-3.13708,5.40808,19.28367,19.28367,0,0,0,2.11963-.26044l80.33361-14.76464-.81762-27.3794-.92053-30.98883Z" transform="translate(-306.73021 -387.14606)"/>
      <path class="cls-27" d="M991.39758,387.9297l.09082.0545a5.55334,5.55334,0,0,1,2.68293,4.74189l-.09089,25.31433v.02417l-.15747,42.21679c0,3.07044-2.162,7.019-4.94171,9.19306l66.79828,6.14691,16.963,1.58667.73273-44.63916.46637-28.13641-82.45923-16.49067C991.45209,387.93574,991.42786,387.93574,991.39758,387.9297Z" transform="translate(-306.73021 -387.14606)"/>
      <path class="cls-27" d="M1061.53278,686.06318l-.109-45.44458a9.02761,9.02761,0,0,1,7.6972-8.90851l2.44061-.33911-71.80664-4.03936-57.45984,10.5617a21.14608,21.14608,0,0,1-6.71612.13324L784.80743,616.81825v29.493a6.9141,6.9141,0,0,0,5.89856,6.807l270.92975,38.84356a27.92432,27.92432,0,0,0,3.54279.27857A8.42422,8.42422,0,0,1,1061.53278,686.06318Z" transform="translate(-306.73021 -387.14606)"/>
      <path class="cls-27" d="M727.60193,555.37959l-.05573.30395h.03754l.01819-.00116Z" transform="translate(-306.73021 -387.14606)"/>
      <path class="cls-27" d="M938.59485,637.6208l.86-.4118a5.5248,5.5248,0,0,0,3.14307-5.05072l-.87811-30.795-.62982-22.256c-.03632-1.53223-2.51331-4.08179-4.51783-5.24457a4.11235,4.11235,0,0,0-1.59277-.61169L730.17572,555.68238l-2.592.00116c-3.16119.01246-4.79132,3.17225-5.293,6.24268h6.43756v.03027l200.625,18.86457,1.21118,50.05938L724.44067,602.85908c.68433,2.02875,4.209,4.70557,5.62,5.25659a13.67989,13.67989,0,0,0,2.89484.79944L935.6637,637.427A20.663,20.663,0,0,0,938.59485,637.6208Z" transform="translate(-306.73021 -387.14606)"/>
      <polygon class="cls-27" points="623.211 243.038 622.03 194.226 609.712 193.069 613.491 241.718 623.211 243.038"/>
      <path class="cls-27" d="M1075.87958,682.59913a1.34454,1.34454,0,0,1-.3089.03638,1.20507,1.20507,0,0,1-1.20514-1.2052l-.15747-39.02521a1.57467,1.57467,0,0,1,.01819-.24225,2.3405,2.3405,0,0,1,1.97424-2.10144l51.46442-8.15142,64.34558-10.18628v-.01819l5.69873-.43-.04242-.55719a5.22352,5.22352,0,0,0-.60559-2.13775l-.05451-.09693a6.70833,6.70833,0,0,0-2.18017-2.26495l-.84784-.09082a41.12928,41.12928,0,0,0-9.95007.16956l-114.82282,16.0122a8.41648,8.41648,0,0,0-7.17645,8.309l.109,45.44458a7.74144,7.74144,0,0,0,4.2453,6.165,27.22226,27.22226,0,0,0,6.486-.96289l117.59644-31.93963a6.45531,6.45531,0,0,0,1.42926-.56928,10.63254,10.63254,0,0,0,5.15374-6.32251l.09687-.327-4.71161.04847Z" transform="translate(-306.73021 -387.14606)"/>
      <polygon class="cls-27" points="422.004 175.416 422.24 210.68 612.461 236.279 609.1 193.009 422.004 175.416"/>
      <path class="cls-27" d="M1076.29742,640.661a1.75878,1.75878,0,0,0-1.4837,1.74414l.01813,4.99622.13934,34.029a.58515.58515,0,0,0,.23615.47235.59475.59475,0,0,0,.52081.109l116.36108-30.38928-.06665-25.66553-.01208-3.61548Z" transform="translate(-306.73021 -387.14606)"/>
      <path class="cls-27" d="M991.549,388.74122a4.33608,4.33608,0,0,0-.78729-.47845l-1.05982-.50263a8.92505,8.92505,0,0,0-1.70172.14533l-202.8778,36.2334a12.96654,12.96654,0,0,0-2.64051,1.084,12.81076,12.81076,0,0,0-2.08929,1.30811l-5.23242,4.03943a.43972.43972,0,0,0-.18171.55108.42421.42421,0,0,0,.15741.19983l.03034.02423a.42214.42214,0,0,0,.30884.05451l206.75372-36.49982-.0061.36945-.92047,66.59234-.26648.02423-206.239,21.43842c-.16955,1.67755-.04242,3.21576,2.32556,3.94855,47.84284-2.19837,95.26777-6.84333,141.13025-11.33692,22.82526-2.24072,46.43183-4.55414,69.796-6.53448,2.913-1.938,5.2688-6.01368,5.2688-9.12043L993.499,411.306l.06665-18.57995A4.92523,4.92523,0,0,0,991.549,388.74122Z" transform="translate(-306.73021 -387.14606)"/>
      <polygon class="cls-27" points="674.887 8.481 664.84 10.249 662.096 75.4 673.972 74.165 674.887 8.481"/>
      <polygon class="cls-27" points="473.85 48.421 473.85 94.967 661.491 75.467 663.992 15.948 473.85 48.421"/>
      <polygon class="cls-27" points="469.26 44.775 473.62 47.845 664.022 15.324 664.228 10.358 469.26 44.775"/>
      <path class="cls-27" d="M1071.79779,558.14119l-72.85437-.24836-235.417-.18164-.05445-.02423a27.24623,27.24623,0,0,1-4.89941-2.61621l-23.1159.46027,199.547,17.11438Z" transform="translate(-306.73021 -387.14606)"/>
      <polygon class="cls-27" points="798.061 93.054 798.945 23.627 767.811 17.401 766.618 90.116 798.061 93.054"/>
      <polygon class="cls-27" points="612.509 236.897 422.041 211.262 417.971 215.138 612.873 241.633 612.509 236.897"/>
      <path class="cls-27" d="M900.74451,557.20851a88.53819,88.53819,0,0,1-7.58216-36.68152,93.84844,93.84844,0,0,1,.648-10.73737c1.48981-12.6148,5.24451-22.48614,8.24225-25.97442L777.092,487.903c-16.19995-.8963-28.10016,8.51483-31.84277,25.15686a44.84683,44.84683,0,0,0-1.06586,9.81085v.18164c.05451,14.08032,6.40729,28.69965,19.46417,34.05316Z" transform="translate(-306.73021 -387.14606)"/>
    </g>
    <g>
      <path class="cls-27" d="M1174.10272,547.422V496.69038l-157.09405-5.78961a35.26823,35.26823,0,0,0-11.8396,19.22192,40.66034,40.66034,0,0,0-.93866,5.11133c-.0727.648-.13324,1.296-.1817,1.95007a40.73086,40.73086,0,0,0-.0727,4.37848,39.76176,39.76176,0,0,0,11.14923,26.29541Z" transform="translate(-306.73021 -387.14606)"/>
      <path class="cls-27" d="M901.4046,557.20851l15.6004.01214a74.62831,74.62831,0,0,1-8.49053-36.9541,81.55275,81.55275,0,0,1,1.03558-10.92511c2.12567-12.972,6.86755-22.7041,9.88348-26.09552l-16.527.539c-3.75477,3.676-9.01746,18.38617-9.072,36.73A88.62066,88.62066,0,0,0,901.4046,557.20851Z" transform="translate(-306.73021 -387.14606)"/>
      <path class="cls-27" d="M1140.70966,484.16645,1055.725,476.2209l-67.59162-6.22565c-23.34,1.98639-46.9707,4.29981-69.82019,6.54059-37.46881,3.67-75.9732,7.44287-114.90759,9.90161l198.154-6.486Z" transform="translate(-306.73021 -387.14606)"/>
      <path class="cls-27" d="M946.61914,557.24482a78.14146,78.14146,0,0,1-8.11511-37.48693c.63586-18.035,7.3642-32.15766,11.82745-37.52332l-16.57538.539c-2.58593,2.8645-7.237,13.14166-9.2052,26.54968a88.52222,88.52222,0,0,0-.91449,10.68293,78.88916,78.88916,0,0,0,7.96375,37.22656Z" transform="translate(-306.73021 -387.14606)"/>
      <path class="cls-27" d="M930.92792,557.23274a79.58336,79.58336,0,0,1-7.8971-37.21442,87.40821,87.40821,0,0,1,.92053-10.77978c1.90156-12.92365,6.30433-23.013,8.99323-26.4347l-12.65112.41181c-2.82819,2.74945-7.96369,12.88122-10.14392,26.22272a81.092,81.092,0,0,0-1.02948,10.8161,73.98214,73.98214,0,0,0,8.56323,36.96618Z" transform="translate(-306.73021 -387.14606)"/>
      <polygon class="cls-27" points="820.244 95.131 821.238 28.084 806.685 25.177 805.504 93.75 820.244 95.131"/>
      <path class="cls-27" d="M1150.33905,484.45948l7.904.23951,4.36524.1336a6.379,6.379,0,0,0,.70581-.37329,6.16644,6.16644,0,0,0,1.14068-.8183,7.08918,7.08918,0,0,0,2.18354-5.15832l.63641-33.48383.56238-19.7287-2.61542-2.71527-36.64838-7.20337v.00129l-.00067-.00013-.99524,66.979Z" transform="translate(-306.73021 -387.14606)"/>
      <polygon class="cls-27" points="804.904 93.696 806.079 25.056 799.545 23.748 798.667 93.114 804.904 93.696"/>
      <path class="cls-27" d="M997.72015,557.28724c-5.62609-2.29522-17.48382-7.455-24.29083-20.06976a44.97621,44.97621,0,0,1-4.38464-17.98041,36.44745,36.44745,0,0,1,.09692-4.05151c1.1991-14.80707,12.863-28.197,29.929-34.54376l-47.91547,1.5625c-4.40277,4.9599-11.40967,19.19165-12.05762,37.54144a77.61368,77.61368,0,0,0,8.19385,37.49908Z" transform="translate(-306.73021 -387.14606)"/>
      <polygon class="cls-27" points="745.779 173.654 747.681 229.521 754.669 228.237 752.756 172.915 745.779 173.654"/>
      <polygon class="cls-27" points="769.585 225.494 767.66 171.334 753.361 172.848 755.269 228.128 769.585 225.494"/>
      <polygon class="cls-27" points="714.657 176.954 716.395 235.274 747.081 229.63 745.173 173.714 714.657 176.954"/>
      <path class="cls-27" d="M1002.28033,626.86525l72.37592,4.07574,109.28754-15.2431a41.224,41.224,0,0,1,9.34448-.23621,7.25193,7.25193,0,0,0-1.19306-.27856l-.92047-.13928c-1.2536-.18775-2.53747-.327-3.80926-.40577l-88.50318-5.52313Z" transform="translate(-306.73021 -387.14606)"/>
      <path class="cls-27" d="M1003.62482,515.234a41.269,41.269,0,0,1,1.623-7.63061,36.25174,36.25174,0,0,1,9.27185-15.32184c.50867-.49054,1.04157-.96295,1.58057-1.41107l-4.03326-.15137-.00611.006c-3.65783,1.23541-22.038,8.23621-24.64813,24.89642a25.88035,25.88035,0,0,0,1.57458,13.8078c3.51252,7.776,10.68287,17.278,24.89039,18.37409.17559.01208.30279.02423.41784.03631a40.26537,40.26537,0,0,1-10.92511-26.27722c-.03637-.87811-.03637-1.76227-.01208-2.64648.01812-.5874.04236-1.18091.08478-1.77442Q1003.50665,516.17873,1003.62482,515.234Z" transform="translate(-306.73021 -387.14606)"/>
      <path class="cls-27" d="M1159.59241,485.93483l-9.29-.87207-148.7428-4.50574-.49658.01819c-.92047.30884-1.82282.63586-2.71307.99322-16.3332,6.3952-27.44605,19.36725-28.60279,33.66559-.09082,1.09613-.12109,2.18622-.115,3.25812a44.39727,44.39727,0,0,0,4.33008,18.44073c6.95239,12.88727,19.31274,17.89563,24.58758,20.03345.28461.115.545.22406.78125.32092l180.46436.62378v-9.90167l-165.39087.45422-.02417-.006c-.10907-.01819-.29681-.03027-.5451-.04846-14.51032-1.12036-21.82-10.804-25.399-18.73138a26.56789,26.56789,0,0,1-1.62305-14.147c2.66467-17.00537,21.33545-24.12726,25.0539-25.38086l.115-.03637h.05456l167.75873,6.17718v-10.3316l-17.07806-.52088A7.14919,7.14919,0,0,1,1159.59241,485.93483Z" transform="translate(-306.73021 -387.14606)"/>
      <path class="cls-27" d="M936.43286,573.10566c2.271,1.13245,5.21423,4.1,5.2627,5.98944l.73883,26.08344.006.01813.76312,26.94946a6.11642,6.11642,0,0,1-3.13708,5.40808,19.28367,19.28367,0,0,0,2.11963-.26044l80.33361-14.76464-.81762-27.3794-.92053-30.98883Z" transform="translate(-306.73021 -387.14606)"/>
      <path class="cls-27" d="M1077.35724,558.16536l-2.36188.24829,1.92584,54.11694,30.91614-5.6806a8.03315,8.03315,0,0,0,6.62531-8.1817l-.648-40.37574Z" transform="translate(-306.73021 -387.14606)"/>
      <path class="cls-27" d="M1075.87958,682.59913a1.34454,1.34454,0,0,1-.3089.03638,1.20507,1.20507,0,0,1-1.20514-1.2052l-.15747-39.02521a1.57467,1.57467,0,0,1,.01819-.24225,2.3405,2.3405,0,0,1,1.97424-2.10144l51.46442-8.15142,64.34558-10.18628v-.01819l5.69873-.43-.04242-.55719a5.22352,5.22352,0,0,0-.60559-2.13775l-.05451-.09693a6.70833,6.70833,0,0,0-2.18017-2.26495l-.84784-.09082a41.12928,41.12928,0,0,0-9.95007.16956l-114.82282,16.0122a8.41648,8.41648,0,0,0-7.17645,8.309l.109,45.44458a7.74144,7.74144,0,0,0,4.2453,6.165,27.22226,27.22226,0,0,0,6.486-.96289l117.59644-31.93963a6.45531,6.45531,0,0,0,1.42926-.56928,10.63254,10.63254,0,0,0,5.15374-6.32251l.09687-.327-4.71161.04847Z" transform="translate(-306.73021 -387.14606)"/>
      <polygon class="cls-27" points="612.509 236.897 422.041 211.262 417.971 215.138 612.873 241.633 612.509 236.897"/>
      <path class="cls-27" d="M938.59485,637.6208l.86-.4118a5.5248,5.5248,0,0,0,3.14307-5.05072l-.87811-30.795-.62982-22.256c-.03632-1.53223-2.51331-4.08179-4.51783-5.24457a4.11235,4.11235,0,0,0-1.59277-.61169L730.17572,555.68238l-2.592.00116c-3.16119.01246-4.79132,3.17225-5.293,6.24268h6.43756v.03027l200.625,18.86457,1.21118,50.05938L724.44067,602.85908c.68433,2.02875,4.209,4.70557,5.62,5.25659a13.67989,13.67989,0,0,0,2.89484.79944L935.6637,637.427A20.663,20.663,0,0,0,938.59485,637.6208Z" transform="translate(-306.73021 -387.14606)"/>
      <polygon class="cls-27" points="623.211 243.038 622.03 194.226 609.712 193.069 613.491 241.718 623.211 243.038"/>
      <polygon class="cls-27" points="422.004 175.416 422.24 210.68 612.461 236.279 609.1 193.009 422.004 175.416"/>
      <path class="cls-27" d="M727.60193,555.37959l-.05573.30395h.03754l.01819-.00116Z" transform="translate(-306.73021 -387.14606)"/>
      <path class="cls-27" d="M1061.53278,686.06318l-.109-45.44458a9.02761,9.02761,0,0,1,7.6972-8.90851l2.44061-.33911-71.80664-4.03936-57.45984,10.5617a21.14608,21.14608,0,0,1-6.71612.13324L784.80743,616.81825v29.493a6.9141,6.9141,0,0,0,5.89856,6.807l270.92975,38.84356a27.92432,27.92432,0,0,0,3.54279.27857A8.42422,8.42422,0,0,1,1061.53278,686.06318Z" transform="translate(-306.73021 -387.14606)"/>
      <path class="cls-27" d="M1076.29742,640.661a1.75878,1.75878,0,0,0-1.4837,1.74414l.01813,4.99622.13934,34.029a.58515.58515,0,0,0,.23615.47235.59475.59475,0,0,0,.52081.109l116.36108-30.38928-.06665-25.66553-.01208-3.61548Z" transform="translate(-306.73021 -387.14606)"/>
      <path class="cls-27" d="M991.549,388.74122a4.33608,4.33608,0,0,0-.78729-.47845l-1.05982-.50263a8.92505,8.92505,0,0,0-1.70172.14533l-202.8778,36.2334a12.96654,12.96654,0,0,0-2.64051,1.084,12.81076,12.81076,0,0,0-2.08929,1.30811l-5.23242,4.03943a.43972.43972,0,0,0-.18171.55108.42421.42421,0,0,0,.15741.19983l.03034.02423a.42214.42214,0,0,0,.30884.05451l206.75372-36.49982-.0061.36945-.92047,66.59234-.26648.02423-206.239,21.43842c-.16955,1.67755-.04242,3.21576,2.32556,3.94855,47.84284-2.19837,95.26777-6.84333,141.13025-11.33692,22.82526-2.24072,46.43183-4.55414,69.796-6.53448,2.913-1.938,5.2688-6.01368,5.2688-9.12043L993.499,411.306l.06665-18.57995A4.92523,4.92523,0,0,0,991.549,388.74122Z" transform="translate(-306.73021 -387.14606)"/>
      <path class="cls-27" d="M991.39758,387.9297l.09082.0545a5.55334,5.55334,0,0,1,2.68293,4.74189l-.09089,25.31433v.02417l-.15747,42.21679c0,3.07044-2.162,7.019-4.94171,9.19306l66.79828,6.14691,16.963,1.58667.73273-44.63916.46637-28.13641-82.45923-16.49067C991.45209,387.93574,991.42786,387.93574,991.39758,387.9297Z" transform="translate(-306.73021 -387.14606)"/>
      <polygon class="cls-27" points="674.887 8.481 664.84 10.249 662.096 75.4 673.972 74.165 674.887 8.481"/>
      <polygon class="cls-27" points="469.26 44.775 473.62 47.845 664.022 15.324 664.228 10.358 469.26 44.775"/>
      <path class="cls-27" d="M1071.79779,558.14119l-72.85437-.24836-235.417-.18164-.05445-.02423a27.24623,27.24623,0,0,1-4.89941-2.61621l-23.1159.46027,199.547,17.11438Z" transform="translate(-306.73021 -387.14606)"/>
      <polygon class="cls-27" points="473.85 48.421 473.85 94.967 661.491 75.467 663.992 15.948 473.85 48.421"/>
      <path class="cls-27" d="M900.74451,557.20851a88.53819,88.53819,0,0,1-7.58216-36.68152,93.84844,93.84844,0,0,1,.648-10.73737c1.48981-12.6148,5.24451-22.48614,8.24225-25.97442L777.092,487.903c-16.19995-.8963-28.10016,8.51483-31.84277,25.15686a44.84683,44.84683,0,0,0-1.06586,9.81085v.18164c.05451,14.08032,6.40729,28.69965,19.46417,34.05316Z" transform="translate(-306.73021 -387.14606)"/>
      <polygon class="cls-27" points="798.061 93.054 798.945 23.627 767.811 17.401 766.618 90.116 798.061 93.054"/>
    </g>
    <g>
      <path class="cls-27" d="M901.4046,557.20851l15.6004.01214a74.62831,74.62831,0,0,1-8.49053-36.9541,81.55275,81.55275,0,0,1,1.03558-10.92511c2.12567-12.972,6.86755-22.7041,9.88348-26.09552l-16.527.539c-3.75477,3.676-9.01746,18.38617-9.072,36.73A88.62066,88.62066,0,0,0,901.4046,557.20851Z" transform="translate(-306.73021 -387.14606)"/>
      <path class="cls-27" d="M946.61914,557.24482a78.14146,78.14146,0,0,1-8.11511-37.48693c.63586-18.035,7.3642-32.15766,11.82745-37.52332l-16.57538.539c-2.58593,2.8645-7.237,13.14166-9.2052,26.54968a88.52222,88.52222,0,0,0-.91449,10.68293,78.88916,78.88916,0,0,0,7.96375,37.22656Z" transform="translate(-306.73021 -387.14606)"/>
      <path class="cls-27" d="M1140.70966,484.16645,1055.725,476.2209l-67.59162-6.22565c-23.34,1.98639-46.9707,4.29981-69.82019,6.54059-37.46881,3.67-75.9732,7.44287-114.90759,9.90161l198.154-6.486Z" transform="translate(-306.73021 -387.14606)"/>
      <path class="cls-27" d="M930.92792,557.23274a79.58336,79.58336,0,0,1-7.8971-37.21442,87.40821,87.40821,0,0,1,.92053-10.77978c1.90156-12.92365,6.30433-23.013,8.99323-26.4347l-12.65112.41181c-2.82819,2.74945-7.96369,12.88122-10.14392,26.22272a81.092,81.092,0,0,0-1.02948,10.8161,73.98214,73.98214,0,0,0,8.56323,36.96618Z" transform="translate(-306.73021 -387.14606)"/>
      <polygon class="cls-27" points="804.904 93.696 806.079 25.056 799.545 23.748 798.667 93.114 804.904 93.696"/>
      <polygon class="cls-27" points="798.061 93.054 798.945 23.627 767.811 17.401 766.618 90.116 798.061 93.054"/>
      <polygon class="cls-27" points="820.244 95.131 821.238 28.084 806.685 25.177 805.504 93.75 820.244 95.131"/>
      <path class="cls-27" d="M1150.33905,484.45948l7.904.23951,4.36524.1336a6.379,6.379,0,0,0,.70581-.37329,6.16644,6.16644,0,0,0,1.14068-.8183,7.08918,7.08918,0,0,0,2.18354-5.15832l.63641-33.48383.56238-19.7287-2.61542-2.71527-36.64838-7.20337v.00129l-.00067-.00013-.99524,66.979Z" transform="translate(-306.73021 -387.14606)"/>
      <path class="cls-27" d="M997.72015,557.28724c-5.62609-2.29522-17.48382-7.455-24.29083-20.06976a44.97621,44.97621,0,0,1-4.38464-17.98041,36.44745,36.44745,0,0,1,.09692-4.05151c1.1991-14.80707,12.863-28.197,29.929-34.54376l-47.91547,1.5625c-4.40277,4.9599-11.40967,19.19165-12.05762,37.54144a77.61368,77.61368,0,0,0,8.19385,37.49908Z" transform="translate(-306.73021 -387.14606)"/>
      <polygon class="cls-27" points="745.779 173.654 747.681 229.521 754.669 228.237 752.756 172.915 745.779 173.654"/>
      <path class="cls-27" d="M1174.10272,547.422V496.69038l-157.09405-5.78961a35.26823,35.26823,0,0,0-11.8396,19.22192,40.66034,40.66034,0,0,0-.93866,5.11133c-.0727.648-.13324,1.296-.1817,1.95007a40.73086,40.73086,0,0,0-.0727,4.37848,39.76176,39.76176,0,0,0,11.14923,26.29541Z" transform="translate(-306.73021 -387.14606)"/>
      <polygon class="cls-27" points="714.657 176.954 716.395 235.274 747.081 229.63 745.173 173.714 714.657 176.954"/>
      <path class="cls-27" d="M1002.28033,626.86525l72.37592,4.07574,109.28754-15.2431a41.224,41.224,0,0,1,9.34448-.23621,7.25193,7.25193,0,0,0-1.19306-.27856l-.92047-.13928c-1.2536-.18775-2.53747-.327-3.80926-.40577l-88.50318-5.52313Z" transform="translate(-306.73021 -387.14606)"/>
      <polygon class="cls-27" points="769.585 225.494 767.66 171.334 753.361 172.848 755.269 228.128 769.585 225.494"/>
      <path class="cls-27" d="M1003.62482,515.234a41.269,41.269,0,0,1,1.623-7.63061,36.25174,36.25174,0,0,1,9.27185-15.32184c.50867-.49054,1.04157-.96295,1.58057-1.41107l-4.03326-.15137-.00611.006c-3.65783,1.23541-22.038,8.23621-24.64813,24.89642a25.88035,25.88035,0,0,0,1.57458,13.8078c3.51252,7.776,10.68287,17.278,24.89039,18.37409.17559.01208.30279.02423.41784.03631a40.26537,40.26537,0,0,1-10.92511-26.27722c-.03637-.87811-.03637-1.76227-.01208-2.64648.01812-.5874.04236-1.18091.08478-1.77442Q1003.50665,516.17873,1003.62482,515.234Z" transform="translate(-306.73021 -387.14606)"/>
      <path class="cls-27" d="M936.43286,573.10566c2.271,1.13245,5.21423,4.1,5.2627,5.98944l.73883,26.08344.006.01813.76312,26.94946a6.11642,6.11642,0,0,1-3.13708,5.40808,19.28367,19.28367,0,0,0,2.11963-.26044l80.33361-14.76464-.81762-27.3794-.92053-30.98883Z" transform="translate(-306.73021 -387.14606)"/>
      <path class="cls-27" d="M1159.59241,485.93483l-9.29-.87207-148.7428-4.50574-.49658.01819c-.92047.30884-1.82282.63586-2.71307.99322-16.3332,6.3952-27.44605,19.36725-28.60279,33.66559-.09082,1.09613-.12109,2.18622-.115,3.25812a44.39727,44.39727,0,0,0,4.33008,18.44073c6.95239,12.88727,19.31274,17.89563,24.58758,20.03345.28461.115.545.22406.78125.32092l180.46436.62378v-9.90167l-165.39087.45422-.02417-.006c-.10907-.01819-.29681-.03027-.5451-.04846-14.51032-1.12036-21.82-10.804-25.399-18.73138a26.56789,26.56789,0,0,1-1.62305-14.147c2.66467-17.00537,21.33545-24.12726,25.0539-25.38086l.115-.03637h.05456l167.75873,6.17718v-10.3316l-17.07806-.52088A7.14919,7.14919,0,0,1,1159.59241,485.93483Z" transform="translate(-306.73021 -387.14606)"/>
      <path class="cls-27" d="M1077.35724,558.16536l-2.36188.24829,1.92584,54.11694,30.91614-5.6806a8.03315,8.03315,0,0,0,6.62531-8.1817l-.648-40.37574Z" transform="translate(-306.73021 -387.14606)"/>
      <path class="cls-27" d="M938.59485,637.6208l.86-.4118a5.5248,5.5248,0,0,0,3.14307-5.05072l-.87811-30.795-.62982-22.256c-.03632-1.53223-2.51331-4.08179-4.51783-5.24457a4.11235,4.11235,0,0,0-1.59277-.61169L730.17572,555.68238l-2.592.00116c-3.16119.01246-4.79132,3.17225-5.293,6.24268h6.43756v.03027l200.625,18.86457,1.21118,50.05938L724.44067,602.85908c.68433,2.02875,4.209,4.70557,5.62,5.25659a13.67989,13.67989,0,0,0,2.89484.79944L935.6637,637.427A20.663,20.663,0,0,0,938.59485,637.6208Z" transform="translate(-306.73021 -387.14606)"/>
      <path class="cls-27" d="M1061.53278,686.06318l-.109-45.44458a9.02761,9.02761,0,0,1,7.6972-8.90851l2.44061-.33911-71.80664-4.03936-57.45984,10.5617a21.14608,21.14608,0,0,1-6.71612.13324L784.80743,616.81825v29.493a6.9141,6.9141,0,0,0,5.89856,6.807l270.92975,38.84356a27.92432,27.92432,0,0,0,3.54279.27857A8.42422,8.42422,0,0,1,1061.53278,686.06318Z" transform="translate(-306.73021 -387.14606)"/>
      <path class="cls-27" d="M727.60193,555.37959l-.05573.30395h.03754l.01819-.00116Z" transform="translate(-306.73021 -387.14606)"/>
      <polygon class="cls-27" points="623.211 243.038 622.03 194.226 609.712 193.069 613.491 241.718 623.211 243.038"/>
      <path class="cls-27" d="M1076.29742,640.661a1.75878,1.75878,0,0,0-1.4837,1.74414l.01813,4.99622.13934,34.029a.58515.58515,0,0,0,.23615.47235.59475.59475,0,0,0,.52081.109l116.36108-30.38928-.06665-25.66553-.01208-3.61548Z" transform="translate(-306.73021 -387.14606)"/>
      <path class="cls-27" d="M991.39758,387.9297l.09082.0545a5.55334,5.55334,0,0,1,2.68293,4.74189l-.09089,25.31433v.02417l-.15747,42.21679c0,3.07044-2.162,7.019-4.94171,9.19306l66.79828,6.14691,16.963,1.58667.73273-44.63916.46637-28.13641-82.45923-16.49067C991.45209,387.93574,991.42786,387.93574,991.39758,387.9297Z" transform="translate(-306.73021 -387.14606)"/>
      <polygon class="cls-27" points="422.004 175.416 422.24 210.68 612.461 236.279 609.1 193.009 422.004 175.416"/>
      <path class="cls-27" d="M1075.87958,682.59913a1.34454,1.34454,0,0,1-.3089.03638,1.20507,1.20507,0,0,1-1.20514-1.2052l-.15747-39.02521a1.57467,1.57467,0,0,1,.01819-.24225,2.3405,2.3405,0,0,1,1.97424-2.10144l51.46442-8.15142,64.34558-10.18628v-.01819l5.69873-.43-.04242-.55719a5.22352,5.22352,0,0,0-.60559-2.13775l-.05451-.09693a6.70833,6.70833,0,0,0-2.18017-2.26495l-.84784-.09082a41.12928,41.12928,0,0,0-9.95007.16956l-114.82282,16.0122a8.41648,8.41648,0,0,0-7.17645,8.309l.109,45.44458a7.74144,7.74144,0,0,0,4.2453,6.165,27.22226,27.22226,0,0,0,6.486-.96289l117.59644-31.93963a6.45531,6.45531,0,0,0,1.42926-.56928,10.63254,10.63254,0,0,0,5.15374-6.32251l.09687-.327-4.71161.04847Z" transform="translate(-306.73021 -387.14606)"/>
      <polygon class="cls-27" points="469.26 44.775 473.62 47.845 664.022 15.324 664.228 10.358 469.26 44.775"/>
      <polygon class="cls-27" points="612.509 236.897 422.041 211.262 417.971 215.138 612.873 241.633 612.509 236.897"/>
      <polygon class="cls-27" points="674.887 8.481 664.84 10.249 662.096 75.4 673.972 74.165 674.887 8.481"/>
      <polygon class="cls-27" points="473.85 48.421 473.85 94.967 661.491 75.467 663.992 15.948 473.85 48.421"/>
      <path class="cls-27" d="M900.74451,557.20851a88.53819,88.53819,0,0,1-7.58216-36.68152,93.84844,93.84844,0,0,1,.648-10.73737c1.48981-12.6148,5.24451-22.48614,8.24225-25.97442L777.092,487.903c-16.19995-.8963-28.10016,8.51483-31.84277,25.15686a44.84683,44.84683,0,0,0-1.06586,9.81085v.18164c.05451,14.08032,6.40729,28.69965,19.46417,34.05316Z" transform="translate(-306.73021 -387.14606)"/>
      <path class="cls-27" d="M1071.79779,558.14119l-72.85437-.24836-235.417-.18164-.05445-.02423a27.24623,27.24623,0,0,1-4.89941-2.61621l-23.1159.46027,199.547,17.11438Z" transform="translate(-306.73021 -387.14606)"/>
      <path class="cls-27" d="M991.549,388.74122a4.33608,4.33608,0,0,0-.78729-.47845l-1.05982-.50263a8.92505,8.92505,0,0,0-1.70172.14533l-202.8778,36.2334a12.96654,12.96654,0,0,0-2.64051,1.084,12.81076,12.81076,0,0,0-2.08929,1.30811l-5.23242,4.03943a.43972.43972,0,0,0-.18171.55108.42421.42421,0,0,0,.15741.19983l.03034.02423a.42214.42214,0,0,0,.30884.05451l206.75372-36.49982-.0061.36945-.92047,66.59234-.26648.02423-206.239,21.43842c-.16955,1.67755-.04242,3.21576,2.32556,3.94855,47.84284-2.19837,95.26777-6.84333,141.13025-11.33692,22.82526-2.24072,46.43183-4.55414,69.796-6.53448,2.913-1.938,5.2688-6.01368,5.2688-9.12043L993.499,411.306l.06665-18.57995A4.92523,4.92523,0,0,0,991.549,388.74122Z" transform="translate(-306.73021 -387.14606)"/>
      <polygon class="cls-29" points="704.292 4.087 711.646 5.557 711.558 5.539 704.292 4.087"/>
      <polygon class="cls-29" points="728.119 8.848 728.576 8.94 720.724 7.37 728.119 8.848"/>
      <polygon class="cls-29" points="711.646 5.557 720.724 7.37 711.558 5.539 711.646 5.557"/>
      <polygon class="cls-29" points="728.119 8.848 730.736 9.371 728.576 8.94 728.119 8.848"/>
    </g>
    <g>
      <path class="cls-27" d="M1140.68444,484.14587l-84.98468-7.94556-67.59162-6.22565c-23.34,1.98639-46.9707,4.29981-69.82019,6.54059-37.46881,3.67-75.9732,7.44287-114.90759,9.90161l198.154-6.486Z" transform="translate(-306.73021 -387.14606)"/>
      <path class="cls-27" d="M901.37938,557.18792l15.60041.01215a74.62828,74.62828,0,0,1-8.49054-36.95411,81.55291,81.55291,0,0,1,1.03558-10.92511c2.12567-12.972,6.86755-22.7041,9.88348-26.09552l-16.527.539c-3.75477,3.676-9.01746,18.38617-9.072,36.73A88.62062,88.62062,0,0,0,901.37938,557.18792Z" transform="translate(-306.73021 -387.14606)"/>
      <path class="cls-27" d="M930.9027,557.21215a79.58336,79.58336,0,0,1-7.8971-37.21442,87.40614,87.40614,0,0,1,.92054-10.77978c1.90155-12.92365,6.30432-23.013,8.99322-26.43469l-12.65112.4118c-2.82819,2.74945-7.96369,12.88123-10.14392,26.22272a81.09381,81.09381,0,0,0-1.02948,10.8161,73.9822,73.9822,0,0,0,8.56323,36.96619Z" transform="translate(-306.73021 -387.14606)"/>
      <path class="cls-27" d="M1174.0775,547.40136V496.66979l-157.09405-5.78961a35.26829,35.26829,0,0,0-11.8396,19.22192,40.66034,40.66034,0,0,0-.93866,5.11133c-.07269.648-.13324,1.296-.1817,1.95008a40.73078,40.73078,0,0,0-.0727,4.37848A39.7618,39.7618,0,0,0,1015.1,547.8374Z" transform="translate(-306.73021 -387.14606)"/>
      <polygon class="cls-27" points="804.879 93.675 806.054 25.036 799.519 23.728 798.641 93.094 804.879 93.675"/>
      <polygon class="cls-27" points="820.219 95.11 821.212 28.064 806.66 25.157 805.479 93.73 820.219 95.11"/>
      <path class="cls-27" d="M1150.31383,484.4389l7.904.2395,4.36524.1336a6.37735,6.37735,0,0,0,.70581-.37329,6.16685,6.16685,0,0,0,1.14068-.81829,7.08919,7.08919,0,0,0,2.18354-5.15833l.63641-33.48383.56238-19.72869-2.61542-2.71528-36.64838-7.20336v.00128l-.00067-.00012-.99524,66.97894Z" transform="translate(-306.73021 -387.14606)"/>
      <path class="cls-27" d="M997.69493,557.26666c-5.62609-2.29523-17.48382-7.455-24.29083-20.06977a44.97616,44.97616,0,0,1-4.38464-17.98041,36.44745,36.44745,0,0,1,.09692-4.05151c1.1991-14.80707,12.863-28.197,29.929-34.54376l-47.91547,1.5625c-4.40277,4.9599-11.40967,19.19165-12.05762,37.54144a77.61383,77.61383,0,0,0,8.19385,37.49909Z" transform="translate(-306.73021 -387.14606)"/>
      <path class="cls-27" d="M1003.5996,515.21343a41.269,41.269,0,0,1,1.623-7.63061,36.25174,36.25174,0,0,1,9.27185-15.32184c.50867-.49054,1.04157-.963,1.58057-1.41107l-4.03326-.15137-.00611.006c-3.65783,1.23542-22.038,8.23621-24.64813,24.89643a25.88024,25.88024,0,0,0,1.57459,13.8078c3.51251,7.776,10.68286,17.278,24.89038,18.37408.17559.01209.30279.02423.41784.03632A40.26542,40.26542,0,0,1,1003.3452,521.542c-.03637-.87812-.03637-1.76227-.01208-2.64649.01813-.5874.04236-1.18091.08478-1.77441Q1003.48143,516.15813,1003.5996,515.21343Z" transform="translate(-306.73021 -387.14606)"/>
      <path class="cls-27" d="M946.59392,557.22424a78.14152,78.14152,0,0,1-8.11511-37.48694c.63586-18.035,7.3642-32.15766,11.82745-37.52332l-16.57538.539c-2.58593,2.86451-7.237,13.14167-9.2052,26.54969a88.52186,88.52186,0,0,0-.91449,10.68292,78.88916,78.88916,0,0,0,7.96375,37.22656Z" transform="translate(-306.73021 -387.14606)"/>
      <polygon class="cls-27" points="769.56 225.473 767.634 171.314 753.336 172.828 755.244 228.107 769.56 225.473"/>
      <polygon class="cls-27" points="745.754 173.633 747.655 229.5 754.644 228.216 752.73 172.894 745.754 173.633"/>
      <polygon class="cls-27" points="704.267 4.066 711.621 5.536 720.698 7.35 711.533 5.518 704.267 4.066"/>
      <path class="cls-27" d="M1159.56719,485.91424l-9.29-.87207-148.7428-4.50574-.49658.01819c-.92047.30884-1.82282.63586-2.71307.99322-16.33319,6.39521-27.44605,19.36725-28.60279,33.66559-.09082,1.09613-.12109,2.18622-.11505,3.25812a44.39745,44.39745,0,0,0,4.33008,18.44074c6.95239,12.88726,19.31274,17.89563,24.58759,20.03344.2846.115.545.22406.78125.32093l180.46435.62378v-9.90168l-165.39087.45423-.02417-.006c-.10907-.01818-.29681-.03027-.5451-.04846-14.51032-1.12036-21.82-10.804-25.39905-18.73138a26.56787,26.56787,0,0,1-1.623-14.147c2.66467-17.00537,21.33545-24.12725,25.0539-25.38085l.115-.03638h.05456l167.75873,6.17718v-10.3316l-17.07806-.52087A7.14933,7.14933,0,0,1,1159.56719,485.91424Z" transform="translate(-306.73021 -387.14606)"/>
      <polygon class="cls-27" points="720.698 7.35 728.094 8.828 730.711 9.351 728.551 8.919 720.698 7.35"/>
      <path class="cls-27" d="M1077.332,558.14477l-2.36188.24829L1076.896,612.51l30.91614-5.6806a8.03315,8.03315,0,0,0,6.62531-8.1817l-.648-40.37573Z" transform="translate(-306.73021 -387.14606)"/>
      <polygon class="cls-27" points="714.632 176.934 716.37 235.253 747.056 229.609 745.148 173.694 714.632 176.934"/>
      <path class="cls-27" d="M936.40764,573.08508c2.271,1.13244,5.21424,4.1,5.2627,5.98944l.73883,26.08343.006.01813.76312,26.94946a6.1164,6.1164,0,0,1-3.13708,5.40808,19.28365,19.28365,0,0,0,2.11963-.26043l80.33361-14.76465-.81762-27.3794-.92053-30.98883Z" transform="translate(-306.73021 -387.14606)"/>
      <path class="cls-27" d="M1002.25511,626.84466l72.37592,4.07574,109.28754-15.2431a41.22457,41.22457,0,0,1,9.34448-.23621,7.252,7.252,0,0,0-1.19305-.27856l-.92048-.13928c-1.2536-.18775-2.53747-.327-3.80926-.40576l-88.50317-5.52314Z" transform="translate(-306.73021 -387.14606)"/>
      <path class="cls-27" d="M1061.50756,686.0426l-.109-45.44458a9.02761,9.02761,0,0,1,7.6972-8.90851l2.44061-.33911L999.72972,627.311l-57.45983,10.5617a21.14535,21.14535,0,0,1-6.71613.13324L784.78221,616.79766v29.493a6.9141,6.9141,0,0,0,5.89856,6.807l270.92975,38.84357a27.92614,27.92614,0,0,0,3.54279.27856A8.42422,8.42422,0,0,1,1061.50756,686.0426Z" transform="translate(-306.73021 -387.14606)"/>
      <path class="cls-27" d="M938.56963,637.60021l.86-.4118a5.52479,5.52479,0,0,0,3.14307-5.05072l-.87811-30.79505-.62982-22.256c-.03632-1.53222-2.51331-4.08178-4.51783-5.24456a4.11223,4.11223,0,0,0-1.59277-.6117L730.1505,555.6618l-2.592.00116c-3.16119.01245-4.79132,3.17224-5.293,6.24267h6.43756v.03028l200.625,18.86456,1.21118,50.05939L724.41545,602.83849c.68433,2.02875,4.209,4.70557,5.62,5.2566a13.68042,13.68042,0,0,0,2.89484.79943l202.70819,28.51191A20.66442,20.66442,0,0,0,938.56963,637.60021Z" transform="translate(-306.73021 -387.14606)"/>
      <path class="cls-27" d="M727.57671,555.359l-.05573.304h.03754l.01819-.00116Z" transform="translate(-306.73021 -387.14606)"/>
      <polygon class="cls-27" points="623.185 243.017 622.004 194.206 609.686 193.049 613.465 241.697 623.185 243.017"/>
      <polygon class="cls-27" points="421.979 175.395 422.215 210.66 612.436 236.259 609.075 192.988 421.979 175.395"/>
      <path class="cls-27" d="M1076.2722,640.64037a1.75879,1.75879,0,0,0-1.4837,1.74414l.01813,4.99622.13934,34.029a.58513.58513,0,0,0,.23615.47235.59471.59471,0,0,0,.52081.109L1192.064,651.6018l-.06665-25.66553-.01208-3.61548Z" transform="translate(-306.73021 -387.14606)"/>
      <path class="cls-27" d="M1197.036,618.56l-.05451-.09692a6.70836,6.70836,0,0,0-2.18017-2.265l-.84784-.09082a41.12928,41.12928,0,0,0-9.95007.16956l-114.82282,16.01221a8.41648,8.41648,0,0,0-7.17645,8.309l.109,45.44458a7.74144,7.74144,0,0,0,4.2453,6.165,27.22226,27.22226,0,0,0,6.486-.96289l117.59644-31.93963a6.45482,6.45482,0,0,0,1.42926-.56928,10.63254,10.63254,0,0,0,5.15374-6.32251l.09687-.327-4.71161.04846-116.55481,30.44379a1.34453,1.34453,0,0,1-.3089.03637,1.20507,1.20507,0,0,1-1.20514-1.2052l-.15747-39.02521a1.57453,1.57453,0,0,1,.01819-.24224,2.34048,2.34048,0,0,1,1.97424-2.10144l51.46442-8.15143,64.34558-10.18628v-.01819l5.69873-.43-.04242-.55719A5.22352,5.22352,0,0,0,1197.036,618.56Z" transform="translate(-306.73021 -387.14606)"/>
      <path class="cls-27" d="M900.71929,557.18792a88.53819,88.53819,0,0,1-7.58216-36.68152,93.84811,93.84811,0,0,1,.648-10.73736c1.48981-12.61481,5.24451-22.48615,8.24225-25.97443l-124.96057,4.08783c-16.2-.8963-28.10016,8.51483-31.84277,25.15686a44.84683,44.84683,0,0,0-1.06586,9.81085v.18164c.05451,14.08032,6.40729,28.69965,19.46417,34.05316Z" transform="translate(-306.73021 -387.14606)"/>
      <polygon class="cls-27" points="473.825 48.4 473.825 94.947 661.466 75.446 663.967 15.927 473.825 48.4"/>
      <polygon class="cls-27" points="674.862 8.46 664.815 10.229 662.071 75.38 673.947 74.144 674.862 8.46"/>
      <polygon class="cls-27" points="469.234 44.754 473.595 47.825 663.997 15.304 664.203 10.338 469.234 44.754"/>
      <path class="cls-27" d="M991.37236,387.90911l.09082.05451a5.55331,5.55331,0,0,1,2.68293,4.74188l-.09089,25.31433v.02417l-.15747,42.2168c0,3.07043-2.162,7.019-4.94171,9.193l66.79828,6.14691,16.963,1.58667.73273-44.63916.46637-28.13641L991.4572,387.9212C991.42687,387.91515,991.40264,387.91515,991.37236,387.90911Z" transform="translate(-306.73021 -387.14606)"/>
      <path class="cls-27" d="M1071.77257,558.1206l-72.85437-.24835-235.417-.18164-.05444-.02424a27.24535,27.24535,0,0,1-4.89942-2.61621l-23.1159.46027,199.547,17.11438Z" transform="translate(-306.73021 -387.14606)"/>
      <polygon class="cls-27" points="612.484 236.877 422.015 211.241 417.946 215.117 612.848 241.612 612.484 236.877"/>
      <polygon class="cls-27" points="798.036 93.033 798.92 23.606 767.786 17.381 766.593 90.096 798.036 93.033"/>
      <path class="cls-27" d="M991.52379,388.72064a4.33556,4.33556,0,0,0-.78729-.47846l-1.05982-.50262a8.92423,8.92423,0,0,0-1.70172.14532l-202.8778,36.2334a12.96654,12.96654,0,0,0-2.64051,1.084,12.81144,12.81144,0,0,0-2.08929,1.30811l-5.23242,4.03943a.43972.43972,0,0,0-.18171.55108.42421.42421,0,0,0,.15741.19983l.03034.02423a.4221.4221,0,0,0,.30884.05451l206.75372-36.49982-.0061.36945-.92047,66.59234-.26648.02423-206.239,21.43842c-.16955,1.67755-.04242,3.21576,2.32556,3.94855,47.84284-2.19837,95.26777-6.84333,141.13025-11.33692,22.82526-2.24072,46.43183-4.55413,69.796-6.53448,2.913-1.938,5.2688-6.01367,5.2688-9.12042l.18164-48.97535.06665-18.58A4.9252,4.9252,0,0,0,991.52379,388.72064Z" transform="translate(-306.73021 -387.14606)"/>
      <path class="cls-29" d="M1010.29938,391.07736l.74408.14877-19.41571-3.882a9.6637,9.6637,0,0,0-3.7063-.03631L975.228,389.57281l-.60559.109-87.08008,15.5459L873.49835,407.599c-39.25335,7.20257-45.24991,8.13736-74.306,13.40934l-13.91907,2.604a13.13908,13.13908,0,0,0-4.22554,1.85115l-3.16239,2.25644-3.05218,2.35583a1.041,1.041,0,0,0-.39368,1.27173,1.10489,1.10489,0,0,0,.36945.45422l-.006.01209,5.1961,3.65185V482.176l-5.48681.56928-.24225.02423-.02423.24218c-.13324,1.12647-.34516,3.05231,1.41711,4.23322-8.08484-.15747-14.97052,2.20441-20.47552,7.025-5.14161,4.49964-8.76917,10.94935-10.50116,18.65265-3.28241,14.60114.8963,32.71485,13.05078,41.55664l-30.11676.59351a5.02127,5.02127,0,0,0-4.18476,2.27106,10.91188,10.91188,0,0,0-1.77441,4.83874l-.04242.34522H728.153l.2362,35.42791-4.65106,4.427.01819.15747c.34515,2.39215,4.51172,5.51709,6.11053,6.1408a14.54189,14.54189,0,0,0,3.028.82972l51.33117,7.21881v29.57776a7.52,7.52,0,0,0,6.41938,7.40661l270.92968,38.84351a28.50028,28.50028,0,0,0,4.05152.29669,27.929,27.929,0,0,0,7.43078-1.01135l117.5904-31.93354a7.2069,7.2069,0,0,0,1.55645-.62377,11.24926,11.24926,0,0,0,5.45044-6.67981l.33307-1.11432-5.26873.0545-.07874-29.28107,5.74115-.436-.08484-1.16272a5.82211,5.82211,0,0,0-.67828-2.374l-.06659-.11506a7.513,7.513,0,0,0-3.85767-3.22784,7.07437,7.07437,0,0,0-1.48376-.36945l-.92054-.13928c-1.27178-.18774-2.57385-.327-3.86376-.4118l-86.07471-5.37171,6.61932-1.21728a8.63774,8.63774,0,0,0,7.12189-8.78735l-.648-40.36359,65.67187.23016h.30884V547.39966l-5.69269.01214V496.70446l5.37781.19983.31488.01209V485.36749l-16.55725-.50262a7.43248,7.43248,0,0,0,1.0235-.7873,7.65159,7.65159,0,0,0,2.374-5.58972l.93866-49.18725.01215-.66016.02423-1.24146a5.614,5.614,0,0,0-4.51782-5.64428l-15.74573-3.14917-3.82141-.76306-106.66529-21.32941-2.61688-.52289-14.35821-2.86853,14.35821,2.86853-7.201-1.43895-9.27189-1.85274,1.509.30207-1.509-.30207-7.35431-1.46954,7.26673,1.452-6.66388-1.33374,6.66388,1.33374,9.16516,1.83142,7.8526,1.56915,1.55395.31042-1.55395-.31042,2.15954.43152.837.16736M1187.38971,614.634c1.27179.07873,2.55566.218,3.80926.40576l.92048.13928a7.25276,7.25276,0,0,1,1.19305.27857,41.22457,41.22457,0,0,0-9.34448.2362l-109.28754,15.24311-72.37591-4.07575,96.582-17.7503Zm-125.96594.74487-6.98871,1.28388-1.90161-55.86707,6.97662-.73883Zm-1.30811-55.38861,14.29834-1.514,1.92584,54.15931-14.31652,2.63433Zm-6.28015,56.78156-30.686,5.64422-1.73816-58.31982,30.51648-3.24Zm-32.10919-21.62616.81763,27.37939-80.33362,14.76465a19.2858,19.2858,0,0,1-2.11963.26044,6.11642,6.11642,0,0,0,3.13708-5.40808l-.76312-26.94947-.006-.01812-.73883-26.08344c-.04846-1.88946-2.9917-4.857-5.2627-5.98944l84.3487-8.94476Zm92.76056,3.51855a8.03315,8.03315,0,0,1-6.62531,8.1817l-30.91614,5.68061-1.92584-54.11695,2.36188-.24829,36.45746.1272ZM1179.81964,485.955v10.33161l-167.75873-6.17719h-.05456l-.115.03638c-3.71845,1.2536-22.38922,8.37549-25.0539,25.38086a26.56784,26.56784,0,0,0,1.62305,14.147c3.5791,7.92737,10.88873,17.611,25.399,18.73139.24829.01818.436.03027.5451.04846l.02417.006,165.39087-.45422v9.90167l-180.46435-.62378c-.23621-.09686-.49665-.20587-.78125-.32092-5.27485-2.13782-17.6352-7.14618-24.58759-20.03345a44.39745,44.39745,0,0,1-4.33008-18.44074c-.006-1.0719.02423-2.162.115-3.25811,1.15674-14.29834,12.2696-27.27039,28.60279-33.66559.89026-.35736,1.7926-.68439,2.71307-.99323l.49658-.01819,148.7428,4.50574,9.29.87207a7.14933,7.14933,0,0,0,3.12494-.49664Zm-176.425,35.60352a40.26537,40.26537,0,0,0,10.92511,26.27722c-.115-.01208-.24225-.02423-.41784-.03632-14.20752-1.09613-21.37787-10.59808-24.89038-18.37408a25.88022,25.88022,0,0,1-1.57459-13.8078c2.61017-16.66022,20.9903-23.661,24.64813-24.89642l.00611-.00605,4.03326.15137c-.539.44812-1.0719.92053-1.58057,1.41107a36.25174,36.25174,0,0,0-9.27185,15.32184,41.26907,41.26907,0,0,0-1.623,7.63062q-.11811.94473-.1817,1.90765c-.04242.59351-.06665,1.187-.08478,1.77441C1003.35828,519.7962,1003.35828,520.68036,1003.39465,521.55847Zm.60559,0a40.73082,40.73082,0,0,1,.0727-4.37848c.04846-.65411.109-1.30206.1817-1.95007a40.66,40.66,0,0,1,.93866-5.11133,35.26828,35.26828,0,0,1,11.8396-19.22193l157.09405,5.78962v50.73156l-158.97747.436A39.76176,39.76176,0,0,1,1004.00024,521.55847Zm-84.54248-38.31665c-3.01593,3.39142-7.75781,13.12347-9.88348,26.09552a81.55424,81.55424,0,0,0-1.03558,10.92511,74.62827,74.62827,0,0,0,8.49054,36.9541l-15.60041-.01215a88.62062,88.62062,0,0,1-7.57007-36.6936c.05457-18.34381,5.31727-33.054,9.072-36.73Zm-116.028,3.19153c38.93439-2.45874,77.43878-6.23163,114.90759-9.90161,22.84949-2.24079,46.48023-4.5542,69.82019-6.54059l67.59162,6.22564,84.98468,7.94556-139.15-4.215Zm105.71448,33.817a81.09547,81.09547,0,0,1,1.02948-10.8161c2.18023-13.34149,7.31573-23.47326,10.14392-26.22271l12.65112-.41181c-2.6889,3.42169-7.09167,13.51105-8.99322,26.43469a87.40631,87.40631,0,0,0-.92054,10.77979,79.5833,79.5833,0,0,0,7.8971,37.21441l-13.24463-.01208A73.9822,73.9822,0,0,1,909.14429,520.25036Zm14.51635-.24829a88.52222,88.52222,0,0,1,.91449-10.68292c1.9682-13.408,6.61927-23.68518,9.2052-26.54968l16.57538-.539c-4.46325,5.36566-11.19159,19.48834-11.82745,37.52331a78.14152,78.14152,0,0,0,8.11511,37.48694l-15.019-.01209A78.88912,78.88912,0,0,1,923.66064,520.00207Zm15.46113-.26043c.64794-18.3498,7.65484-32.58155,12.05761-37.54145l47.91547-1.5625c-17.066,6.3468-28.72992,19.7367-29.929,34.54376a36.44763,36.44763,0,0,0-.09692,4.05152,44.97644,44.97644,0,0,0,4.38464,17.98041c6.807,12.61474,18.66474,17.77453,24.29083,20.06976l-50.42877-.04242A77.61366,77.61366,0,0,1,939.12177,519.74164Zm189.47576-104.39295v-.00128l36.64838,7.20337,2.61542,2.71527-.56238,19.7287-.63641,33.48382a7.08913,7.08913,0,0,1-2.18354,5.15833,6.167,6.167,0,0,1-1.14068.8183,6.379,6.379,0,0,1-.70581.37329l-4.36524-.13361-7.904-.2395-22.76166-2.12787.99524-66.97894Zm-.60559-.12244-.99322,67.04664-14.74042-1.3808,1.18091-68.5727Zm-15.15832-3.028-1.17487,68.63934-6.23773-.58142.87811-69.366Zm-7.134-1.4292-.88415,69.42657-31.44305-2.93719,1.19305-72.715Zm-68.81524-14.37421-45.37769-8.45715,82.45923,16.49066-.46637,28.13642-.73273,44.63916-16.963-1.58667-66.79828-6.14692c2.77973-2.17407,4.94171-6.12262,4.94171-9.193l.15748-42.2168v-.02417l.09088-25.31433a5.55332,5.55332,0,0,0-2.68293-4.74188l-.09082-.0545C991.45209,387.93164,991.47632,387.93164,991.50665,387.93768ZM776.014,431.91675l194.96863-34.41651-.20594,4.96594-190.40234,32.521ZM971.5943,397.39123l10.047-1.76843-.91449,65.684-11.87592,1.23541Zm-3.349,65.21765L780.60455,482.10931V435.5625L970.74646,403.09ZM774.821,483.32055l206.239-21.43841.26648-.02423.92047-66.59235.0061-.36944L775.49927,431.39593a.42215.42215,0,0,1-.30884-.0545l-.03033-.02423a.42413.42413,0,0,1-.15741-.19983.43972.43972,0,0,1,.1817-.55109l5.23242-4.03943a12.81138,12.81138,0,0,1,2.08929-1.3081,12.96678,12.96678,0,0,1,2.64051-1.084l202.8778-36.2334a8.926,8.926,0,0,1,1.70173-.14532l1.05981.50262a4.33556,4.33556,0,0,1,.78729.47846,4.92521,4.92521,0,0,1,2.01666,3.98486l-.06665,18.58-.18164,48.97534c0,3.10675-2.35583,7.18243-5.2688,9.12042-23.36419,1.98035-46.97076,4.29376-69.796,6.53449-45.86248,4.49359-93.28741,9.13855-141.13024,11.33691C774.77856,486.53631,774.65143,484.99811,774.821,483.32055Zm-30.61334,39.72773v-.18164a44.84692,44.84692,0,0,1,1.06586-9.81086c3.74261-16.642,15.64282-26.05316,31.84277-25.15686l124.96057-4.08783c-2.99774,3.48828-6.75244,13.35962-8.24225,25.97443a93.84844,93.84844,0,0,0-.648,10.73737,88.53815,88.53815,0,0,0,7.58216,36.68151l-137.09693-.103C750.61493,551.74792,744.26215,537.1286,744.20764,523.04828Zm14.38916,32.01837a27.24662,27.24662,0,0,0,4.89942,2.61621l.05444.02423,235.417.18164,72.85437.24835L935.02789,572.64129l-199.547-17.11438ZM728.795,598.40374l190.46894,25.63532.3634,4.73578-194.902-26.49524Zm190.42047,25.01758L728.99481,597.82238l-.2362-35.2644,187.09576,17.59284Zm-2.74939-43.21,12.318,1.15674,1.18091,48.81177-9.72-1.32019ZM732.97974,608.911a13.68048,13.68048,0,0,1-2.89484-.79944c-1.411-.551-4.93567-3.22784-5.62-5.25659l206.12385,28.02136L929.37756,580.817l-200.625-18.86456v-.03027H722.315c.50165-3.07044,2.13178-6.23023,5.293-6.24268h-.03754l.05573-.30395v.30279l-.01819.00116,2.592-.00116,204.80365,17.5686a4.11223,4.11223,0,0,1,1.59277.6117c2.00452,1.16278,4.48151,3.71234,4.51783,5.24457l.62982,22.256.87811,30.795a5.52479,5.52479,0,0,1-3.14307,5.05072l-.86.41181a20.66443,20.66443,0,0,1-2.93115-.19379ZM1061.66,691.9577,790.73022,653.11413a6.91407,6.91407,0,0,1-5.89855-6.807v-29.493l150.77154,21.20831a21.14614,21.14614,0,0,0,6.71613-.13324l57.45983-10.56171,71.80665,4.03937-2.44062.33911a9.02763,9.02763,0,0,0-7.6972,8.90851l.109,45.44458a8.4242,8.4242,0,0,0,3.64575,6.17718A27.92246,27.92246,0,0,1,1061.66,691.9577Zm135.41339-39.52789a10.63257,10.63257,0,0,1-5.15374,6.32251,6.45528,6.45528,0,0,1-1.42926.56927l-117.59644,31.93964a27.22327,27.22327,0,0,1-6.486.96289,7.74146,7.74146,0,0,1-4.2453-6.165l-.109-45.44458a8.41648,8.41648,0,0,1,7.17645-8.309l114.82282-16.01221a41.12928,41.12928,0,0,1,9.95007-.16955l.84784.09082a6.70814,6.70814,0,0,1,2.18017,2.26495l.05451.09692a5.22361,5.22361,0,0,1,.60559,2.13776l.04242.55719-5.69873.43v.01819l-64.34558,10.18628-51.46442,8.15143a2.34049,2.34049,0,0,0-1.97424,2.10144,1.57457,1.57457,0,0,0-.01819.24225l.15747,39.02521a1.20509,1.20509,0,0,0,1.20514,1.2052,1.34454,1.34454,0,0,0,.3089-.03638l116.55481-30.44379,4.71161-.04846Zm-4.9599-.81153-116.36108,30.38929a.59475.59475,0,0,1-.52081-.109.58515.58515,0,0,1-.23615-.47235l-.13934-34.029-.01813-4.99621a1.75878,1.75878,0,0,1,1.48371-1.74414l115.71307-18.31958.01208,3.61548Z" transform="translate(-306.73021 -387.14606)"/>
    </g>
    <g>
      <path class="cls-30" d="M306.73021,513.32373h36.144v10.08008h-25.7041v11.30371h22.75244V544.7876H317.17015v11.44824h26.7124v10.08008H306.73021Z" transform="translate(-306.73021 -387.14606)"/>
      <path class="cls-30" d="M362.67357,513.32373l15.48,38.16016-6.04785-1.22461,14.04-36.93555h12.38379l-24.1919,55.44043-24.19189-55.44043Z" transform="translate(-306.73021 -387.14606)"/>
      <path class="cls-30" d="M407.67259,513.32373h36.144v10.08008h-25.7041v11.30371H440.865V544.7876H418.11254v11.44824h26.7124v10.08008H407.67259Z" transform="translate(-306.73021 -387.14606)"/>
      <path class="cls-30" d="M503.072,568.47607,462.89574,532.188l3.09619,1.72754.21582,32.40039h-10.584V511.23584h.43212l39.312,36.14355-2.3042-1.00781-.21582-33.04785h10.5122v55.15234Z" transform="translate(-306.73021 -387.14606)"/>
      <path class="cls-30" d="M513.43968,513.32373H549.1516v10.08008H536.26341v42.91211H525.82347V523.40381H513.43968Z" transform="translate(-306.73021 -387.14606)"/>
      <path class="cls-30" d="M568.59154,546.73193a8.66142,8.66142,0,0,0,1.51172,4.82422,11.72472,11.72472,0,0,0,3.99609,3.74317,10.636,10.636,0,0,0,5.436,1.44043,11.36238,11.36238,0,0,0,9.75586-5.1836,8.81394,8.81394,0,0,0,1.47607-4.82422v-33.4082h10.2959v33.624a18.75136,18.75136,0,0,1-2.87988,10.332,20.0728,20.0728,0,0,1-7.77588,7.05566,23.12407,23.12407,0,0,1-10.87207,2.55664,22.75347,22.75347,0,0,1-10.76416-2.55664,20.12785,20.12785,0,0,1-7.73975-7.05566,18.74358,18.74358,0,0,1-2.88037-10.332v-33.624h10.44043Z" transform="translate(-306.73021 -387.14606)"/>
      <path class="cls-30" d="M606.24779,566.31592l23.9043-55.08008h.57617l23.90381,55.08008H642.53588L627.2722,527.57959l7.56006-5.18359-18.28808,43.91992ZM622.592,547.16357h15.91211l3.67187,8.78418H619.35179Z" transform="translate(-306.73021 -387.14606)"/>
      <path class="cls-30" d="M662.33568,513.32373h10.43994v52.99219H662.33568Z" transform="translate(-306.73021 -387.14606)"/>
      <path class="cls-30" d="M714.75121,526.14014a39.80169,39.80169,0,0,0-6.15625-2.73633,18.06131,18.06131,0,0,0-5.86817-1.08008,9.12474,9.12474,0,0,0-5.32763,1.36816,4.68638,4.68638,0,0,0-1.94434,4.10352,4.61406,4.61406,0,0,0,1.47607,3.34863,14.2017,14.2017,0,0,0,3.81592,2.62793,51.36729,51.36729,0,0,0,4.86035,2.08789,40.57106,40.57106,0,0,1,4.57178,2.05176,17.1429,17.1429,0,0,1,4.06787,2.95215,12.97265,12.97265,0,0,1,2.88037,4.3916,16.99361,16.99361,0,0,1,1.07959,6.44434,14.22558,14.22558,0,0,1-2.08789,7.48828,15.22771,15.22771,0,0,1-6.12011,5.58008,21.12734,21.12734,0,0,1-9.93555,2.124,32.115,32.115,0,0,1-6.15625-.6123,31.64823,31.64823,0,0,1-11.98779-5.07618l4.60791-8.13574A25.12767,25.12767,0,0,0,690.595,555.48a24.59028,24.59028,0,0,0,4.42822,1.62012,16.4691,16.4691,0,0,0,4.104.57519,13.82107,13.82107,0,0,0,3.77979-.54,6.962,6.962,0,0,0,3.168-1.83593,4.94583,4.94583,0,0,0,1.26025-3.59961,4.4853,4.4853,0,0,0-1.04443-2.87989,10.78882,10.78882,0,0,0-2.80762-2.376,23.02207,23.02207,0,0,0-3.85205-1.87207q-2.44848-.93457-5.04-2.16016a25.84332,25.84332,0,0,1-4.85986-2.98828A12.90786,12.90786,0,0,1,684.655,528.5874a15.12273,15.12273,0,0,1,2.05175-7.99219,14.581,14.581,0,0,1,5.79639-5.36328,20.13639,20.13639,0,0,1,8.63965-2.19629,29.907,29.907,0,0,1,10.4043,1.51172,36.42383,36.42383,0,0,1,7.16406,3.60059Z" transform="translate(-306.73021 -387.14606)"/>
    </g>
    <g>
      <path class="cls-30" d="M1244.96556,562.06738a20.10389,20.10389,0,0,1-3.2041,1.94434,29.19957,29.19957,0,0,1-5.72461,2.16016,26.37569,26.37569,0,0,1-7.4873.86425,29.81208,29.81208,0,0,1-11.19629-2.26855,24.45023,24.45023,0,0,1-8.35156-5.7959,25.46488,25.46488,0,0,1-5.22071-8.42383,28.41389,28.41389,0,0,1-1.7998-10.15234,32.1875,32.1875,0,0,1,1.83594-11.08789,25.35426,25.35426,0,0,1,5.25585-8.71192,23.62879,23.62879,0,0,1,8.17188-5.6875,26.65919,26.65919,0,0,1,10.51269-2.0166,28.42956,28.42956,0,0,1,9.43165,1.44043,32.65059,32.65059,0,0,1,6.69628,3.0957L1239.781,527.292a30.09674,30.09674,0,0,0-4.78808-2.84472,15.3513,15.3513,0,0,0-6.876-1.47559,13.869,13.869,0,0,0-5.7959,1.25977,15.1189,15.1189,0,0,0-4.89551,3.56445,17.31323,17.31323,0,0,0-3.34863,5.36426,17.75989,17.75989,0,0,0-1.22363,6.65918,20.86426,20.86426,0,0,0,1.11621,6.98437,15.50613,15.50613,0,0,0,3.2041,5.43555,14.141,14.141,0,0,0,5.00391,3.49219,16.8527,16.8527,0,0,0,6.58789,1.2246,17.55,17.55,0,0,0,7.27148-1.36816,16.59245,16.59245,0,0,0,4.6084-2.87988Z" transform="translate(-306.73021 -387.14606)"/>
      <path class="cls-30" d="M1252.16478,540.03613a26.14851,26.14851,0,0,1,2.08789-10.36816,27.89785,27.89785,0,0,1,5.7959-8.67578,27.45962,27.45962,0,0,1,8.60449-5.94043,26.48259,26.48259,0,0,1,20.95215,0,28.35507,28.35507,0,0,1,8.67578,5.94043,27.84767,27.84767,0,0,1,5.9043,8.67578,25.79261,25.79261,0,0,1,2.124,10.36816,26.14149,26.14149,0,0,1-2.124,10.51172,26.98518,26.98518,0,0,1-5.9043,8.60352,27.90957,27.90957,0,0,1-8.67578,5.7959,27.314,27.314,0,0,1-20.95215,0,27.10005,27.10005,0,0,1-14.40039-14.39942A26.50371,26.50371,0,0,1,1252.16478,540.03613Zm10.79981,0a17.11827,17.11827,0,0,0,1.26074,6.58789,16.92841,16.92841,0,0,0,3.52734,5.39942,16.04788,16.04788,0,0,0,11.77246,4.93261,15.24535,15.24535,0,0,0,11.376-4.93261,17.47905,17.47905,0,0,0,4.60742-11.98731,17.53335,17.53335,0,0,0-4.71582-12.13281,15.603,15.603,0,0,0-5.14746-3.63574,16.49219,16.49219,0,0,0-12.81641,0,15.974,15.974,0,0,0-5.18359,3.63574,16.671,16.671,0,0,0-3.45605,5.43652A18.02293,18.02293,0,0,0,1262.96459,540.03613Z" transform="translate(-306.73021 -387.14606)"/>
      <path class="cls-30" d="M1364.196,568.62012,1324.01927,532.332l3.09668,1.72754.21582,32.40039h-10.584V511.37988h.43164l39.3125,36.14356-2.30469-1.00782-.21582-33.04785h10.5127v55.15235Z" transform="translate(-306.73021 -387.14606)"/>
      <path class="cls-30" d="M1374.5642,513.46777h35.71191v10.08008h-12.88867V566.46H1386.948V523.54785H1374.5642Z" transform="translate(-306.73021 -387.14606)"/>
      <path class="cls-30" d="M1415.31615,540.03613A26.14851,26.14851,0,0,1,1417.404,529.668a27.89785,27.89785,0,0,1,5.7959-8.67578,27.45962,27.45962,0,0,1,8.60449-5.94043,26.48259,26.48259,0,0,1,20.95215,0,28.35507,28.35507,0,0,1,8.67578,5.94043,27.84784,27.84784,0,0,1,5.9043,8.67578,25.79261,25.79261,0,0,1,2.124,10.36816,26.14149,26.14149,0,0,1-2.124,10.51172,26.98534,26.98534,0,0,1-5.9043,8.60352,27.90957,27.90957,0,0,1-8.67578,5.7959,27.314,27.314,0,0,1-20.95215,0,27.10005,27.10005,0,0,1-14.40039-14.39942A26.50371,26.50371,0,0,1,1415.31615,540.03613Zm10.7998,0a17.11828,17.11828,0,0,0,1.26075,6.58789,16.92824,16.92824,0,0,0,3.52734,5.39942,16.04788,16.04788,0,0,0,11.77246,4.93261,15.24539,15.24539,0,0,0,11.376-4.93261,17.47905,17.47905,0,0,0,4.60742-11.98731,17.53347,17.53347,0,0,0-4.71582-12.13281,15.60306,15.60306,0,0,0-5.14746-3.63574,16.49219,16.49219,0,0,0-12.81641,0,15.974,15.974,0,0,0-5.18359,3.63574,16.671,16.671,0,0,0-3.45606,5.43652A18.02313,18.02313,0,0,0,1426.116,540.03613Z" transform="translate(-306.73021 -387.14606)"/>
      <path class="cls-30" d="M1508.19505,526.28418a39.78112,39.78112,0,0,0-6.15625-2.73633,18.059,18.059,0,0,0-5.86816-1.08008,9.12408,9.12408,0,0,0-5.32715,1.36817,4.68523,4.68523,0,0,0-1.94433,4.10351,4.61351,4.61351,0,0,0,1.47558,3.34864,14.19717,14.19717,0,0,0,3.81641,2.62793,51.31787,51.31787,0,0,0,4.86035,2.08789,40.56247,40.56247,0,0,1,4.57129,2.05175,17.13644,17.13644,0,0,1,4.06836,2.95215,12.96463,12.96463,0,0,1,2.87988,4.3916,16.99308,16.99308,0,0,1,1.08008,6.44434,14.22555,14.22555,0,0,1-2.08789,7.48828,15.23087,15.23087,0,0,1-6.12012,5.58008,21.12866,21.12866,0,0,1-9.93555,2.124,32.1112,32.1112,0,0,1-6.15625-.6123,31.64576,31.64576,0,0,1-11.98828-5.07617l4.6084-8.13575a25.10267,25.10267,0,0,0,4.06738,2.41211,24.5816,24.5816,0,0,0,4.42872,1.62012,16.46194,16.46194,0,0,0,4.10351.5752,13.82218,13.82218,0,0,0,3.78027-.54,6.9645,6.9645,0,0,0,3.168-1.83594,4.94762,4.94762,0,0,0,1.25977-3.59961,4.48471,4.48471,0,0,0-1.04395-2.87988,10.7969,10.7969,0,0,0-2.80761-2.376,23.02727,23.02727,0,0,0-3.85254-1.87207q-2.44776-.93458-5.04-2.16016a25.8553,25.8553,0,0,1-4.85938-2.98828,12.90452,12.90452,0,0,1-5.07617-10.83593,15.11821,15.11821,0,0,1,2.05176-7.99219,14.58264,14.58264,0,0,1,5.7959-5.36328,20.1361,20.1361,0,0,1,8.63965-2.19629,29.90476,29.90476,0,0,1,10.40429,1.51172,36.41031,36.41031,0,0,1,7.16407,3.60058Z" transform="translate(-306.73021 -387.14606)"/>
    </g>
  </g>
</svg>
