<svg id="Camada_1" data-name="Camada 1" xmlns="http://www.w3.org/2000/svg" viewBox="0 0 216 156">
  <defs>
    <style>
      .cls-1 {
        fill: #008eaf;
      }

      .cls-2 {
        fill: #d8e2e7;
      }

      .cls-3 {
        fill: #fff;
      }

      .cls-4 {
        fill: #ec1c24;
      }

      .cls-5 {
        fill: #fefcfc;
      }

      .cls-6 {
        opacity: 0.5;
      }

      .cls-7 {
        fill: #f4f4f4;
      }
    </style>
  </defs>
  <g id="Layer_1" data-name="Layer 1">
    <g id="Layer_5" data-name="Layer 5">
      <rect class="cls-1" width="216" height="156"/>
    </g>
    <g id="Layer_3" data-name="Layer 3">
      <ellipse class="cls-2" cx="108" cy="78" rx="58.69" ry="59.88"/>
    </g>
    <g id="Layer_4" data-name="Layer 4">
      <ellipse class="cls-3" cx="108" cy="78" rx="58.69" ry="59.88"/>
    </g>
  </g>
  <g>
    <path class="cls-4" d="M107.6758,51.1339a31.2112,31.2112,0,0,1,3.8573-5.8726,25.8417,25.8417,0,0,1,11.32-8.2337,22.2932,22.2932,0,0,1,11.2522-.9145,30.09,30.09,0,0,1,11.6747,4.42,22.4573,22.4573,0,0,1,10.0169,15.4527,34.4885,34.4885,0,0,1-1.3715,16.6521,58.8485,58.8485,0,0,1-9.6508,18.0865,94.9988,94.9988,0,0,1-18.707,18.2614,136.8857,136.8857,0,0,1-18.0084,11.397.64.64,0,0,1-.7428-.0112A185.9016,185.9016,0,0,1,78.3351,98.2338,81.45,81.45,0,0,1,67.0357,85.2747a41.8276,41.8276,0,0,1-6.9609-18.2626,32.0176,32.0176,0,0,1,1.58-15.9035c2.4-6.3427,6.5492-11.13,12.9-13.7249,7.5669-3.0915,14.8659-2.3333,21.7691,2.0082a35.8543,35.8543,0,0,1,11.0277,11.2356C107.4468,50.7758,107.5416,50.9245,107.6758,51.1339Zm-40.24,8.0986,0,.0546c.4192,0,.84-.0238,1.2571.0072.3613.0269.5055-.053.5083-.4593a17.4883,17.4883,0,0,1,.3819-3.4078,12.23,12.23,0,0,1,6.6613-9.0412,17.8468,17.8468,0,0,1,8.44-1.7529c.3364.0064.4827-.043.5039-.4233.0476-.8526.1353-1.7043.2437-2.5516.0469-.3671-.0585-.47-.419-.4826a22.9659,22.9659,0,0,0-6.0006.5883A16.6917,16.6917,0,0,0,70.0189,46.84c-3.0678,3.4435-4.1268,7.6135-4.2962,12.0944-.0092.2426.0891.3063.31.3016C66.5,59.2257,66.9682,59.2325,67.4359,59.2325Zm63.65-18.6974a18.3414,18.3414,0,0,0-9.7529,2.4981c-4.0652,2.5033-6.1132,6.3189-6.9907,10.8827-.0606.3151.12.312.3051.345q1.1893.2118,2.38.4154c.6535.1128.653.1117.79-.5181.048-.22.0961-.4408.1508-.66,1.0388-4.1587,3.38-7.1893,7.5266-8.6308a17.75,17.75,0,0,1,8.114-.71c.3145.0388.4176-.0191.4711-.3305q.2251-1.3094.514-2.6074c.0778-.3524-.0488-.4372-.3742-.4775A23.8551,23.8551,0,0,0,131.0864,40.5351Z"/>
    <path class="cls-5" d="M67.4359,59.2325c-.4677,0-.9356-.0068-1.4031.003-.221.0047-.3193-.059-.31-.3016.1694-4.4809,1.2284-8.6509,4.2962-12.0944a16.6917,16.6917,0,0,1,8.9932-5.0756,22.9659,22.9659,0,0,1,6.0006-.5883c.3605.0122.4659.1155.419.4826-.1084.8473-.1961,1.699-.2437,2.5516-.0212.38-.1675.43-.5039.4233a17.8468,17.8468,0,0,0-8.44,1.7529,12.23,12.23,0,0,0-6.6613,9.0412,17.4883,17.4883,0,0,0-.3819,3.4078c-.0028.4063-.147.4862-.5083.4593-.4169-.031-.8379-.0072-1.2571-.0072Z"/>
    <path class="cls-5" d="M131.0864,40.5351a23.8551,23.8551,0,0,1,3.1343.2071c.3254.04.452.1251.3742.4775q-.2865,1.2973-.514,2.6074c-.0535.3114-.1566.3693-.4711.3305a17.75,17.75,0,0,0-8.114.71c-4.1462,1.4415-6.4878,4.4721-7.5266,8.6308-.0547.2188-.1028.4392-.1508.66-.1372.63-.1367.6309-.79.5181q-1.1906-.2056-2.38-.4154c-.1855-.033-.3657-.03-.3051-.345.8775-4.5638,2.9255-8.3794,6.9907-10.8827A18.3414,18.3414,0,0,1,131.0864,40.5351Z"/>
  </g>
  <g class="cls-6">
    <path class="cls-7" d="M89.5324,85.996l-.9492-6.8254-1.1128.1548-.1525-1.0964,1.1129-.1548-.0524-.3767a3.7711,3.7711,0,0,1,.5318-2.8933,2.7828,2.7828,0,0,1,1.8292-1.0052,3.3812,3.3812,0,0,1,1.2592.058l-.0415,1.1407a2.1714,2.1714,0,0,0-.9415-.0525c-1.2274.1707-1.3882,1.2939-1.22,2.5054l.0591.4256L91.77,77.61l.1525,1.0964-1.9147.2662.9492,6.8255Z"/>
    <path class="cls-7" d="M98.5492,84.7421l-.2535-.9823-.0493.0069a2.9779,2.9779,0,0,1-2.2587,1.515,2.2781,2.2781,0,0,1-2.7383-1.9382c-.2664-1.9151,1.29-3.1993,4.353-3.6086l-.0227-.1634a1.649,1.649,0,0,0-2.0555-1.5831,3.9836,3.9836,0,0,0-1.98.8764l-.4595-.9039a4.965,4.965,0,0,1,2.5045-1.066c2.4225-.3369,3.2415,1.2347,3.4622,2.822l.412,2.9627a11.2666,11.2666,0,0,0,.3951,1.88Zm-.775-4.013c-1.5759.1856-3.3213.7118-3.1073,2.2507a1.2867,1.2867,0,0,0,1.55,1.1855,1.9908,1.9908,0,0,0,1.7309-1.5914,1.5327,1.5327,0,0,0,.018-.47Z"/>
    <path class="cls-7" d="M101.2457,78.4775c-.1138-.8183-.2236-1.4873-.364-2.1348l1.26-.1753.2432,1.2672.0489-.0068a2.7577,2.7577,0,0,1,2.2852-1.8027,2.3649,2.3649,0,0,1,2.4634,1.2759l.0328-.0046a3.2913,3.2913,0,0,1,.74-1.1539,2.73,2.73,0,0,1,1.6743-.8c1.0476-.1457,2.6976.3259,3.08,3.0758l.6487,4.6646-1.4074.1957-.6236-4.4847c-.2118-1.5224-.8954-2.3616-2.058-2.2a1.8819,1.8819,0,0,0-1.52,1.5464,2.3838,2.3838,0,0,0-.0144.736l.68,4.8938-1.4078.1958-.66-4.7468c-.1753-1.26-.8589-2.0994-1.9558-1.9469a1.9875,1.9875,0,0,0-1.5838,1.6884,2.0084,2.0084,0,0,0-.0167.72l.6646,4.7792-1.4073.1957Z"/>
    <path class="cls-7" d="M115.8872,71.9868a.9009.9009,0,0,1-1.7846.2481.8863.8863,0,0,1,.7753-1.0257A.8638.8638,0,0,1,115.8872,71.9868Zm-.1935,10.3711-1.1016-7.9219,1.44-.2,1.1017,7.9218Z"/>
    <path class="cls-7" d="M117.907,70.2042l1.44-.2,1.6161,11.621-1.44.2Z"/>
    <path class="cls-7" d="M122.806,73.2938l2.3862,4.4392c.2528.4992.5356,1.0939.7322,1.5506l.0329-.0046c.081-.4953.16-1.1236.278-1.7236l.9243-4.8671,1.5225-.2117-1.3756,5.9473c-.6532,2.86-1.164,4.3493-2.0274,5.337a3.9452,3.9452,0,0,1-1.6383,1.1793l-.5282-1.161A3.8659,3.8659,0,0,0,124.275,82.9a4.4129,4.4129,0,0,0,.988-1.7721,1.0461,1.0461,0,0,0,.0672-.36,1.2653,1.2653,0,0,0-.151-.3625l-3.945-6.8925Z"/>
  </g>
</svg>
