<svg id="Camada_1" data-name="Camada 1" xmlns="http://www.w3.org/2000/svg" xmlns:xlink="http://www.w3.org/1999/xlink" viewBox="0 0 216 156">
  <defs>
    <style>
      .cls-1 {
        fill: #e5a04c;
      }

      .cls-2 {
        fill: #d8e2e7;
      }

      .cls-3 {
        fill: #fff;
      }

      .cls-4 {
        fill: #f71919;
      }

      .cls-5 {
        fill: url(#Gradiente_sem_nome_6);
      }

      .cls-6 {
        fill: url(#Gradiente_sem_nome_6-2);
      }

      .cls-7 {
        fill: url(#Gradiente_sem_nome_6-3);
      }

      .cls-8 {
        fill: url(#Gradiente_sem_nome_6-4);
      }

      .cls-9 {
        fill: url(#Gradiente_sem_nome_6-5);
      }

      .cls-10 {
        fill: url(#Gradiente_sem_nome_6-6);
      }
    </style>
    <linearGradient id="Gradiente_sem_nome_6" data-name="Gradiente sem nome 6" x1="110.2144" y1="73.6055" x2="108.632" y2="89.0341" gradientUnits="userSpaceOnUse">
      <stop offset="0" stop-color="#939393"/>
      <stop offset="1"/>
    </linearGradient>
    <linearGradient id="Gradiente_sem_nome_6-2" x1="101.2499" y1="72.6861" x2="99.6675" y2="88.1146" xlink:href="#Gradiente_sem_nome_6"/>
    <linearGradient id="Gradiente_sem_nome_6-3" x1="127.2208" y1="75.3497" x2="125.6383" y2="90.7783" xlink:href="#Gradiente_sem_nome_6"/>
    <linearGradient id="Gradiente_sem_nome_6-4" x1="141.6145" y1="76.826" x2="140.0321" y2="92.2546" xlink:href="#Gradiente_sem_nome_6"/>
    <linearGradient id="Gradiente_sem_nome_6-5" x1="73.5308" y1="69.8431" x2="71.9484" y2="85.2717" xlink:href="#Gradiente_sem_nome_6"/>
    <linearGradient id="Gradiente_sem_nome_6-6" x1="81.9958" y1="70.7113" x2="80.4134" y2="86.1399" xlink:href="#Gradiente_sem_nome_6"/>
  </defs>
  <g id="Layer_1" data-name="Layer 1">
    <g id="Layer_5" data-name="Layer 5">
      <rect class="cls-1" width="216" height="156"/>
    </g>
    <g id="Layer_3" data-name="Layer 3">
      <ellipse class="cls-2" cx="108" cy="78" rx="58.69" ry="59.88"/>
    </g>
    <g id="Layer_4" data-name="Layer 4">
      <ellipse class="cls-3" cx="108" cy="78" rx="58.69" ry="59.88"/>
    </g>
  </g>
  <g>
    <path class="cls-4" d="M137.0215,105.087a24.6846,24.6846,0,0,1-6.48,6.04,38.7772,38.7772,0,0,1-8.41,4.17,55.7049,55.7049,0,0,1-10.95,2.69,57.9454,57.9454,0,0,1-8.28.56,42.7454,42.7454,0,0,1-10.01-1.19,27.843,27.843,0,0,1-10.73-4.99,1.6646,1.6646,0,0,1-.64-2.2c.53-1.53,1.08-3.05,1.61-4.57.06-.19.12-.22.3-.15a71.4675,71.4675,0,0,0,9.27,2.98,2.1239,2.1239,0,0,0,.97.1,1.7054,1.7054,0,0,0,1.38-1.5,1.8019,1.8019,0,0,0-1.18-1.78c-.98-.31-1.98-.57-2.97-.86a59.5518,59.5518,0,0,1-7.64-2.76c-.88-.4-1.74-.84-2.59-1.32a.5177.5177,0,0,1-.21-.23,33.1942,33.1942,0,0,1-2.21-5.04,37.7628,37.7628,0,0,1-1.95-8.9,21.8018,21.8018,0,0,1,.12-4.35,20.426,20.426,0,0,1,.71-3.66h58.54c.17.96.28,1.92.38,2.88a36.251,36.251,0,0,1,.18,5.1,26.1931,26.1931,0,0,1-.86,6.03.71.71,0,0,1-.18.3,34.3871,34.3871,0,0,1-7.12,6.17,43.8486,43.8486,0,0,1-9.03,4.59,46.4305,46.4305,0,0,1-10.84,2.59c-1.74.2-3.49.33-5.25.36-.76.01-1.52-.04-2.28-.01a1.7616,1.7616,0,0,0-1.68,1.7,1.8135,1.8135,0,0,0,1.75,1.85,50.0722,50.0722,0,0,0,11.53-.79,49.08,49.08,0,0,0,17.34-6.81,37.4822,37.4822,0,0,0,4.44-3.29c.18-.15.25-.13.38.06.87,1.34,1.76,2.67,2.64,3.99A1.9394,1.9394,0,0,1,137.0215,105.087Z"/>
    <path class="cls-4" d="M64.7015,78.1269h9.07c-.29,1.13-.52,2.28-.72,3.43-.01.06-.03.12-.05.2a13.8577,13.8577,0,0,0-2.2-1.13,14.5488,14.5488,0,0,0-4.37-.95A1.6994,1.6994,0,0,1,64.7015,78.1269Z"/>
  </g>
  <g>
    <path class="cls-5" d="M139.0207,78.1269h-58.54c.15-.53.33-1.06.53-1.58a.375.375,0,0,1,.32-.27,25.38,25.38,0,0,0,5.54-1.63,22.14,22.14,0,0,0,11.61-11.34c.1-.19.16-.24.38-.15a75.2108,75.2108,0,0,0,7.33,2.48,1.8828,1.8828,0,0,0,1.02.13.7065.7065,0,0,0,.55-.36.4383.4383,0,0,1,.2-.18,67.8763,67.8763,0,0,0,6.27-4.4c.17-.13.23-.1.36.05a22.8926,22.8926,0,0,0,11.69,7.38,22.3519,22.3519,0,0,0,6.1.73c.78-.01,1.55-.06,2.33-.13a.3031.3031,0,0,1,.31.15,20.9884,20.9884,0,0,1,3.6,7.29C138.7807,76.9069,138.9107,77.517,139.0207,78.1269Z"/>
    <path class="cls-6" d="M88.5807,47.7469a20.8747,20.8747,0,0,0,.52,2.07,13.5462,13.5462,0,0,0,2.67,4.27,22.78,22.78,0,0,0,6.41,4.83,41.3836,41.3836,0,0,0,8.27,3.16.4551.4551,0,0,0,.36-.06,41.5508,41.5508,0,0,0,6.31-4.57,25.3787,25.3787,0,0,0,4.72-5.46,15.7271,15.7271,0,0,0,2.16-5.3,10.0066,10.0066,0,0,0,.13-2.62c-.09-1.08-.11-2.17-.15-3.26a.4442.4442,0,0,0-.2-.38c-.9-.68-1.8-1.37-2.69-2.05a2.2024,2.2024,0,0,0-.94-.41,36.8707,36.8707,0,0,0-7.49-.5,39.4579,39.4579,0,0,0-5.17.43,46.2008,46.2008,0,0,0-7.77,1.69,32.9492,32.9492,0,0,0-4.8,1.88,2.1815,2.1815,0,0,0-.79.62c-.69.92-1.38,1.85-2.07,2.77a.3472.3472,0,0,0-.08.35C88.1807,46.0569,88.3507,46.9069,88.5807,47.7469Zm4.42-3.39a35.0192,35.0192,0,0,1,4.53-1.64,44.5126,44.5126,0,0,1,7.32-1.45,40.489,40.489,0,0,1,9.84.01c.49.07.49.07.26.51a21.3811,21.3811,0,0,1-3.95,5.4,10.8753,10.8753,0,0,1-2.38,1.78.5443.5443,0,0,0-.31.41q-1.02,4.56-2.06,9.12c-.02.08-.04.16-.08.31-.66-1.22-1.29-2.38-1.93-3.54-.9-1.67-1.81-3.33-2.72-5a.39.39,0,0,0-.26-.24,12.64,12.64,0,0,1-4.49-2.05,24.1394,24.1394,0,0,1-3.83-3.31C92.7807,44.4869,92.8207,44.4369,93.0007,44.3569Z"/>
    <path class="cls-7" d="M123.3807,46.697a11.7106,11.7106,0,0,0,.12-2.51c-.04-.59,0-1.19-.08-1.79a23.3534,23.3534,0,0,1,12.59,3.7,16.6346,16.6346,0,0,1,5.44,5.47c.04.06.07.13.12.2a22.9151,22.9151,0,0,0-2.11,1.03,10.0846,10.0846,0,0,0-3.47,3.37,15.0189,15.0189,0,0,0-2.25,7.8c-.02.5-.01,1,0,1.5,0,.14-.04.17-.17.18a19.8134,19.8134,0,0,1-10.33-2.16,22.4136,22.4136,0,0,1-6.16-4.8c-.13-.14-.05-.2.04-.3a28.8357,28.8357,0,0,0,2.9-3.61A20.0185,20.0185,0,0,0,123.3807,46.697Z"/>
    <path class="cls-8" d="M146.9607,68.757a15.4316,15.4316,0,0,0-5.78,3.76c-.02.01-.04.03-.09.06a24.0541,24.0541,0,0,0-1.39-3,23.3645,23.3645,0,0,0-1.99-3.04.7935.7935,0,0,1-.17-.47,16.71,16.71,0,0,1,.11-4.18,9.44,9.44,0,0,1,1.98-4.69,6.1237,6.1237,0,0,1,2.19-1.69c.31-.15.6-.33.92-.47.12-.05.18-.07.26.06a37.6855,37.6855,0,0,1,4.25,8.25,18.9851,18.9851,0,0,1,.84,3.4A1.6912,1.6912,0,0,1,146.9607,68.757Z"/>
    <path class="cls-9" d="M78.1807,74.887a25.0241,25.0241,0,0,0-1.06,3.24h-9.07c-.01-.04-.01-.08-.02-.13a23.2769,23.2769,0,0,1,.55-8.19,33.3627,33.3627,0,0,1,1.32-4.34c.06-.15.11-.22.29-.16.59.19,1.22.18,1.81.38a7.1441,7.1441,0,0,1,3.31,2.25,12.3425,12.3425,0,0,1,2.38,4.55c.21.68.36,1.36.5,2.05A.5975.5975,0,0,1,78.1807,74.887Z"/>
    <path class="cls-10" d="M81.4607,72.6869a18.6548,18.6548,0,0,0-1.33-3.85,12.7863,12.7863,0,0,0-4.73-5.51,9.1156,9.1156,0,0,0-2.96-1.21c-.7-.15-1.39-.36-2.09-.55-.15-.04-.17-.1-.13-.24a15.0456,15.0456,0,0,1,1.5-3.61,21.0967,21.0967,0,0,1,8.27-7.96,21.4425,21.4425,0,0,1,5.12-2.03c.11.71.35,1.38.5,2.08a11.7745,11.7745,0,0,0,1.42,3.51,21.116,21.116,0,0,0,5.9,6.37,27.1335,27.1335,0,0,0,2.58,1.68c.2.11.2.2.11.4a18.2442,18.2442,0,0,1-3.58,5.32,19.5727,19.5727,0,0,1-8.45,5.24c-.62.2-1.25.35-1.87.52C81.5507,72.897,81.5007,72.8469,81.4607,72.6869Z"/>
  </g>
</svg>
