<?xml version="1.0" encoding="utf-8"?>
<!-- Generator: Adobe Illustrator 25.2.3, SVG Export Plug-In . SVG Version: 6.00 Build 0)  -->
<svg version="1.1" xmlns="http://www.w3.org/2000/svg" xmlns:xlink="http://www.w3.org/1999/xlink" x="0px" y="0px"
	 viewBox="0 0 216 156" style="enable-background:new 0 0 216 156;" xml:space="preserve">
<style type="text/css">
	.st0{fill:#D8E2E7;}
	.st1{fill:#171B1E;}
	.st2{opacity:0.3;fill:#171B1E;}
</style>
<g id="Layer_5">
	<rect class="st0" width="216" height="156"/>
</g>
<g id="Layer_3">
	<ellipse class="st0" cx="108" cy="78" rx="58.69" ry="59.88"/>
</g>
<g id="Layer_4">
	<ellipse class="st0" cx="108" cy="78" rx="58.69" ry="59.88"/>
</g>
<g id="Layer_2_xA0_Image_1_">
	<g>
		<path class="st0" d="M92.94,22.82c0.47,0.13,0.84,0.07,1.23,0c0.44-0.08,0.89-0.16,1.52,0.05c0.52,0.17,0.78,0.42,1.06,0.69
			c0.24,0.23,0.49,0.47,0.95,0.7c0.79,0.4,1.74,0.53,2.83,0.38l0.11-0.02l-0.06,0.09c-0.7,1.09-1.5,1.75-2.39,1.95
			c-0.7,0.16-1.24-0.01-1.76-0.18c-0.56-0.17-1.13-0.36-1.91-0.13c-0.56,0.16-0.87,0.42-1.15,0.65c-0.33,0.28-0.61,0.52-1.2,0.51
			c-0.36,0-0.65-0.1-0.92-0.2c-0.35-0.12-0.71-0.25-1.25-0.19c-0.36,0.04-0.72,0.15-1.06,0.33v12.13c1.42,4.19,2.98,8.38,4.63,12.43
			c2.35,5.8,4.21,10.38,7.42,15.89c1.7,2.92,3.58,5.76,5.6,8.46l0.06,0.08l-0.1,0c-3.64-0.02-4.74-0.02-4.96-0.01
			c0.01,0.1,0.01,0.32,0,0.84h0.65v2.5h-0.72v1.58h0.72v2.52h-0.62v1.5h0.64v2.65h-0.64v1.51h0.64V92h-0.63v1.66h0.63v2.5h-0.64
			v1.47h0.7v1.26h1.41v2.99h2.55v-2.93h2.58v2.93h2.57v-2.94h1.68v-0.59h0.68V96.8h-0.72v-2.51h0.62v-1.58h-0.64v-2.54h0.74v-1.6
			h-0.65V86.1h0.65v-0.6h-4.5l0.06-0.08c1.24-1.6,2.42-3.28,3.53-4.99c1.46-2.27,3.84-6.37,7.7-15.77c1.6-3.9,3.13-7.92,4.54-11.95
			V38.79c-0.58-0.17-1-0.68-1-1.29c0-0.74,0.64-1.35,1.42-1.35s1.42,0.6,1.42,1.35c0,0.56-0.37,1.05-0.89,1.25c0.11,0,0.23,0,0.34,0
			c0.46,0,0.92,0,1.38,0.01l0.03,0l0.01,0.03c0.65,1.24,1.42,1.96,2.28,2.16c0.43,0.1,0.77,0.04,1.12-0.03
			c0.41-0.07,0.84-0.15,1.44,0.03c0.53,0.16,0.8,0.4,1.1,0.66c0.24,0.21,0.48,0.43,0.89,0.64c0.82,0.43,1.81,0.59,2.96,0.48
			l0.12-0.01l-0.07,0.09c-0.92,1.22-1.9,1.89-2.9,1.98c-0.58,0.05-0.97-0.1-1.35-0.25c-0.42-0.16-0.82-0.32-1.46-0.21
			c-0.66,0.11-1.05,0.4-1.42,0.68c-0.4,0.3-0.78,0.59-1.44,0.53c-0.3-0.03-0.53-0.11-0.75-0.19c-0.3-0.11-0.6-0.23-1.1-0.2
			c-0.4,0.02-0.8,0.14-1.18,0.33v7.49c1.28,3.55,2.63,7.1,4.03,10.55c2.43,6,3.77,9.31,6.07,13.38c1.67,2.96,3.55,5.82,5.6,8.5
			l0.06,0.08h-4.5v0.63h0.69v2.54h-0.72v1.54h0.79v2.52h-0.73v1.6h0.7v2.51h-0.72v1.56h0.7v0.62h1.28v2.9h2.49v-2.88h2.53v2.88h2.66
			V99h2.4v3.81h0.52v2.47h-0.51v1.46h0.51v2.59h-0.54v1.58h0.54v2.58h-0.55v1.51h0.55v1.39h1.45v1.94
			c9.51-10.64,15.32-24.8,15.32-40.34c0-33.07-26.28-59.88-58.69-59.88c-5.96,0-11.7,0.91-17.12,2.59
			C91.45,21.88,92.14,22.59,92.94,22.82z"/>
		<path class="st1" d="M126.91,37.5c0-0.71-0.61-1.29-1.37-1.29s-1.37,0.58-1.37,1.29c0,0.71,0.61,1.29,1.37,1.29
			S126.91,38.21,126.91,37.5z"/>
		<path class="st1" d="M89.8,19.41c0-0.67-0.58-1.22-1.29-1.22s-1.29,0.55-1.29,1.22s0.58,1.22,1.29,1.22S89.8,20.08,89.8,19.41z"/>
		<path class="st1" d="M90.76,20.71l-2.73,0.02v1.59c0.91-0.33,2.21-0.65,3.14-0.94C91.16,21.36,90.77,20.72,90.76,20.71z"/>
		<path class="st1" d="M149.83,116.5v-1.39h-0.55v-1.72h0.55v-2.38h-0.54v-1.79h0.54v-2.39h-0.51v-1.67h0.51v-2.27h-0.52V99.1h-2.19
			v2.89h-2.86v-2.88h-2.33v2.88h-2.7v-2.9h-1.28v-0.62h-0.7v-1.76h0.72V94.4h-0.7v-1.8h0.73v-2.31h-0.79v-1.75h0.72V86.2h-0.69
			v-0.83h4.4c-2.03-2.66-3.9-5.49-5.55-8.43c-2.3-4.08-3.64-7.39-6.07-13.39c-1.4-3.45-2.76-7.01-4.04-10.56l0-0.02v-7.56L126,45.4
			c0.41-0.21,0.83-0.33,1.25-0.36c0.52-0.03,0.83,0.09,1.14,0.2c0.22,0.08,0.44,0.16,0.72,0.19c0.62,0.05,0.97-0.21,1.37-0.51
			c0.37-0.28,0.78-0.59,1.47-0.7c0.67-0.11,1.1,0.06,1.51,0.22c0.38,0.15,0.75,0.29,1.3,0.24c0.95-0.09,1.88-0.71,2.76-1.85
			c-1.11,0.1-2.09-0.07-2.9-0.5c-0.42-0.22-0.68-0.45-0.91-0.66c-0.3-0.26-0.55-0.49-1.06-0.64c-0.58-0.17-0.99-0.1-1.39-0.03
			c-0.35,0.06-0.71,0.13-1.16,0.03c-0.89-0.2-1.67-0.93-2.33-2.18c-0.45,0-0.9-0.01-1.35-0.01c-0.4,0-0.8,0-1.2,0v13.87l0,0.01
			c-1.41,4.03-2.94,8.06-4.54,11.97c-3.86,9.4-6.25,13.51-7.71,15.79c-1.08,1.69-2.25,3.34-3.47,4.92h4.39v0.8h-0.65v2.27h0.65v1.8
			h-0.74v2.33h0.64v1.78h-0.62v2.31h0.72v1.75h-0.68v0.59h-1.68v2.94h-2.77v-2.93h-2.38v2.93h-2.76V99h-1.41v-1.26h-0.7v-1.67h0.64
			v-2.29h-0.63V91.9h0.63v-2.26h-0.64v-1.71h0.64v-2.45h-0.64v-1.71h0.62v-2.32h-0.72v-1.79h0.72v-2.29h-0.65l0-0.05
			c0.01-0.36,0.02-0.76,0.01-0.88h-0.01l0-0.07l0.02-0.02c0,0,0.01-0.01,0.04-0.01v0h0.02c0.18-0.02,0.99-0.02,4.9,0
			c-1.99-2.67-3.86-5.49-5.54-8.38c-3.21-5.51-5.07-10.1-7.43-15.9c-1.65-4.06-3.21-8.25-4.63-12.45l0-0.02V27.39l0.03-0.01
			c0.36-0.2,0.74-0.32,1.13-0.36c0.56-0.06,0.94,0.07,1.3,0.2c0.28,0.1,0.54,0.19,0.89,0.19c0.55,0.01,0.82-0.22,1.13-0.49
			c0.28-0.24,0.61-0.51,1.18-0.67c0.81-0.23,1.4-0.04,1.97,0.13c0.53,0.17,1.03,0.32,1.7,0.17c0.83-0.19,1.6-0.8,2.26-1.81
			c-1.06,0.13-2,0-2.78-0.4c-0.47-0.24-0.74-0.49-0.97-0.72c-0.28-0.27-0.52-0.5-1.02-0.66c-0.6-0.2-1.04-0.12-1.47-0.04
			c-0.38,0.07-0.78,0.14-1.28,0c-0.84-0.24-1.55-0.97-2.13-2.17c-0.93,0.29-1.84,0.6-2.75,0.94v17.67l0,0.01
			c-1.78,5.02-3.7,10.04-5.72,14.91c-3.95,9.57-6.19,13.65-8.52,17.14c-1.14,1.7-2.36,3.37-3.63,4.96h5.01v1h-0.55v2.33h0.55v1.72
			h-0.54v2.35h0.54v1.8h-0.54v2.27h0.54v1.8h-0.55v2.34h0.55v1.73h-0.55v2.34h0.55v1.79h-0.58v2.28h0.58v1.87h-1.93v-2.86h-2.39
			v2.86h-2.73v-2.9h-2.33v2.9h-2.82v-1.52h0.56V98.2h-0.55V96.4h0.54v-2.37H63v-1.71h0.52v-2.34h-0.52v-1.77h0.52v-2.34h-0.56v-0.53
			h4.42c-2.22-3.03-4.25-6.2-6.02-9.41c-2.87-5.21-4.72-9.88-7.27-16.35c-0.35-0.89-0.7-1.79-1.04-2.68
			c-2.42,6.56-3.75,13.66-3.75,21.09c0,33.07,26.28,59.88,58.69,59.88c17.13,0,32.54-7.49,43.27-19.44v-1.95H149.83z"/>
		<path class="st1" d="M88.03,20.73l2.73-0.02c0.01,0.01,0.01,0.02,0.02,0.04c0.03-0.01,0.07-0.02,0.1-0.03
			c-0.01-0.03-0.03-0.05-0.04-0.08l-0.01-0.03L89,20.62c0.51-0.19,0.87-0.66,0.87-1.2c0-0.71-0.61-1.29-1.37-1.29
			c-0.75,0-1.37,0.58-1.37,1.29c0,0.55,0.37,1.03,0.89,1.21l-0.11,0v1.09c0.03-0.01,0.07-0.02,0.1-0.04V20.73z M87.25,19.41
			c0-0.66,0.57-1.19,1.26-1.19s1.26,0.53,1.26,1.19s-0.57,1.19-1.26,1.19S87.25,20.07,87.25,19.41z"/>
		<path class="st1" d="M82.22,54.23c-3.95,9.56-6.18,13.64-8.51,17.12c-1.16,1.73-2.4,3.42-3.69,5.03l-0.07,0.08h5.12v0.8h-0.55
			v2.54h0.55v1.51h-0.54v2.56h0.54v1.59h-0.54v2.47h0.54v1.59h-0.55v2.54h0.55v1.53h-0.55v2.54h0.55v1.58h-0.58v2.48h0.58v1.67
			h-1.73v-2.86h-2.6v2.86h-2.53v-2.9h-2.53v2.9h-2.62v-1.32h0.56v-2.48h-0.55V96.5h0.54v-2.57h-0.52v-1.5h0.52v-2.54h-0.52v-1.56
			h0.52v-2.54h-0.56v-0.32h4.52l-0.06-0.08c-2.24-3.05-4.29-6.25-6.07-9.48c-2.87-5.21-4.71-9.87-7.26-16.33
			c-0.36-0.92-0.72-1.85-1.08-2.78c-0.02,0.05-0.04,0.09-0.05,0.14c0.34,0.9,0.69,1.79,1.04,2.68c2.55,6.46,4.4,11.13,7.27,16.35
			c1.77,3.21,3.8,6.38,6.02,9.41h-4.42v0.53h0.56v2.34h-0.52v1.77h0.52v2.34H63v1.71h0.52v2.37h-0.54v1.79h0.55v2.27h-0.56v1.52
			h2.82v-2.9h2.33v2.9h2.73v-2.86h2.39v2.86h1.93v-1.87h-0.58v-2.28h0.58v-1.79h-0.55v-2.34h0.55v-1.73h-0.55v-2.34h0.55v-1.8h-0.54
			v-2.27h0.54v-1.8h-0.54v-2.35h0.54v-1.72h-0.55v-2.33h0.55v-1h-5.01c1.27-1.59,2.5-3.26,3.63-4.96c2.33-3.49,4.57-7.57,8.52-17.14
			c2.01-4.87,3.93-9.89,5.72-14.91l0-0.01V21.68c-0.03,0.01-0.07,0.02-0.1,0.04v17.62C86.15,44.35,84.23,49.37,82.22,54.23z"/>
		<path class="st1" d="M92.92,22.92c0.5,0.14,0.89,0.07,1.28,0c0.43-0.08,0.87-0.16,1.47,0.04c0.5,0.17,0.74,0.4,1.02,0.66
			c0.24,0.23,0.5,0.48,0.97,0.72c0.78,0.4,1.72,0.53,2.78,0.4c-0.67,1.01-1.43,1.62-2.26,1.81c-0.67,0.15-1.17-0.01-1.7-0.17
			c-0.57-0.18-1.16-0.36-1.97-0.13c-0.58,0.16-0.9,0.43-1.18,0.67c-0.32,0.27-0.58,0.49-1.13,0.49c-0.34,0-0.61-0.1-0.89-0.19
			c-0.36-0.13-0.73-0.26-1.3-0.2c-0.38,0.04-0.76,0.16-1.13,0.36l-0.03,0.01v12.19l0,0.02c1.42,4.2,2.98,8.38,4.63,12.45
			c2.36,5.81,4.22,10.39,7.43,15.9c1.69,2.89,3.55,5.71,5.54,8.38c-3.9-0.02-4.71-0.02-4.9,0h-0.02v0c-0.03,0-0.03,0.01-0.04,0.01
			l-0.02,0.02l0,0.07h0.01c0.01,0.12,0,0.52-0.01,0.88l0,0.05h0.65v2.29h-0.72v1.79h0.72v2.32h-0.62v1.71h0.64v2.45h-0.64v1.71h0.64
			v2.26h-0.63v1.87h0.63v2.29h-0.64v1.67h0.7V99h1.41v2.99h2.76v-2.93h2.38v2.93h2.77v-2.94h1.68v-0.59h0.68V96.7h-0.72v-2.31h0.62
			v-1.78h-0.64v-2.33h0.74v-1.8h-0.65V86.2h0.65v-0.8h-4.39c1.22-1.58,2.38-3.23,3.47-4.92c1.46-2.27,3.85-6.38,7.71-15.79
			c1.61-3.91,3.13-7.93,4.54-11.97l0-0.01V38.85c0.4,0,0.8,0,1.2,0c0.45,0,0.9,0,1.35,0.01c0.66,1.25,1.45,1.98,2.33,2.18
			c0.46,0.1,0.81,0.04,1.16-0.03c0.4-0.07,0.81-0.15,1.39,0.03c0.51,0.15,0.76,0.38,1.06,0.64c0.23,0.2,0.49,0.43,0.91,0.66
			c0.81,0.43,1.78,0.6,2.9,0.5c-0.88,1.14-1.81,1.76-2.76,1.85c-0.56,0.05-0.92-0.09-1.3-0.24c-0.41-0.16-0.84-0.33-1.51-0.22
			c-0.69,0.11-1.1,0.42-1.47,0.7c-0.4,0.3-0.75,0.57-1.37,0.51c-0.29-0.02-0.5-0.1-0.72-0.19c-0.31-0.12-0.62-0.24-1.14-0.2
			c-0.42,0.03-0.85,0.15-1.25,0.36l-0.03,0.01v7.56l0,0.02c1.28,3.55,2.64,7.11,4.04,10.56c2.43,6,3.77,9.31,6.07,13.39
			c1.65,2.93,3.52,5.77,5.55,8.43h-4.4v0.83h0.69v2.33h-0.72v1.75h0.79v2.31h-0.73v1.8h0.7v2.31h-0.72v1.76h0.7v0.62h1.28v2.9h2.7
			v-2.88h2.33v2.88h2.86V99.1h2.19v3.81h0.52v2.27h-0.51v1.67h0.51v2.39h-0.54v1.79h0.54v2.38h-0.55v1.72h0.55v1.39h1.45v1.95
			c0.03-0.04,0.07-0.07,0.1-0.11v-1.94h-1.45v-1.39h-0.55v-1.51h0.55v-2.58h-0.54v-1.58h0.54v-2.59h-0.51v-1.46h0.51v-2.47h-0.52V99
			h-2.4v2.89h-2.66v-2.88h-2.53v2.88h-2.49v-2.9h-1.28v-0.62h-0.7v-1.56h0.72V94.3h-0.7v-1.6h0.73v-2.52h-0.79v-1.54h0.72V86.1
			h-0.69v-0.63h4.5l-0.06-0.08c-2.05-2.68-3.94-5.54-5.6-8.5c-2.3-4.08-3.64-7.38-6.07-13.38c-1.4-3.45-2.75-7-4.03-10.55v-7.49
			c0.39-0.2,0.78-0.31,1.18-0.33c0.49-0.03,0.8,0.08,1.1,0.2c0.22,0.08,0.45,0.17,0.75,0.19c0.66,0.06,1.04-0.23,1.44-0.53
			c0.37-0.28,0.76-0.57,1.42-0.68c0.65-0.1,1.04,0.05,1.46,0.21c0.38,0.15,0.77,0.3,1.35,0.25c1-0.09,1.98-0.76,2.9-1.98l0.07-0.09
			l-0.12,0.01c-1.14,0.12-2.14-0.04-2.96-0.48c-0.41-0.22-0.66-0.43-0.89-0.64c-0.29-0.26-0.57-0.5-1.1-0.66
			c-0.6-0.18-1.03-0.1-1.44-0.03c-0.35,0.06-0.69,0.12-1.12,0.03c-0.86-0.19-1.63-0.92-2.28-2.16l-0.01-0.03l-0.03,0
			c-0.46,0-0.92-0.01-1.38-0.01c-0.11,0-0.23,0-0.34,0c0.52-0.2,0.89-0.68,0.89-1.25c0-0.74-0.64-1.35-1.42-1.35
			s-1.42,0.6-1.42,1.35c0,0.6,0.42,1.12,1,1.29V52.7c-1.41,4.03-2.94,8.05-4.54,11.95c-3.86,9.4-6.25,13.5-7.7,15.77
			c-1.1,1.71-2.29,3.39-3.53,4.99l-0.06,0.08h4.5v0.6h-0.65v2.47h0.65v1.6h-0.74v2.54h0.64v1.58h-0.62v2.51h0.72v1.55h-0.68v0.59
			h-1.68v2.94h-2.57v-2.93h-2.58v2.93h-2.55V98.9h-1.41v-1.26h-0.7v-1.47h0.64v-2.5h-0.63V92h0.63v-2.46h-0.64v-1.51h0.64v-2.65
			h-0.64v-1.5h0.62v-2.52h-0.72v-1.58h0.72v-2.5h-0.65c0.01-0.52,0.01-0.74,0-0.84c0.22-0.01,1.32-0.02,4.96,0.01l0.1,0l-0.06-0.08
			c-2.01-2.69-3.9-5.54-5.6-8.46c-3.21-5.51-5.07-10.09-7.42-15.89c-1.65-4.06-3.2-8.24-4.63-12.43V27.45
			c0.34-0.18,0.7-0.29,1.06-0.33c0.54-0.06,0.9,0.07,1.25,0.19c0.28,0.1,0.56,0.2,0.92,0.2c0.58,0,0.87-0.23,1.2-0.51
			c0.28-0.23,0.59-0.5,1.15-0.65c0.78-0.22,1.35-0.04,1.91,0.13c0.52,0.16,1.06,0.33,1.76,0.18c0.89-0.2,1.69-0.85,2.39-1.95
			l0.06-0.09l-0.11,0.02c-1.09,0.15-2.04,0.02-2.83-0.38c-0.45-0.23-0.7-0.47-0.95-0.7c-0.28-0.26-0.54-0.51-1.06-0.69
			c-0.63-0.21-1.08-0.13-1.52-0.05c-0.39,0.07-0.76,0.14-1.23,0c-0.8-0.23-1.49-0.94-2.06-2.11c-0.03,0.01-0.07,0.02-0.1,0.03
			C91.36,21.95,92.08,22.68,92.92,22.92z M124.22,37.5c0-0.69,0.59-1.25,1.32-1.25s1.32,0.56,1.32,1.25s-0.59,1.25-1.32,1.25
			S124.22,38.19,124.22,37.5z"/>
	</g>
	<path class="st2" d="M109.21,40.74c0-0.52-0.45-0.94-0.99-0.94c-0.55,0-0.99,0.42-0.99,0.94c0,0.52,0.45,0.94,0.99,0.94
		C108.76,41.67,109.21,41.25,109.21,40.74z"/>
	<path class="st2" d="M52.75,70.14c0.28-1.08,0.59-2.16,0.91-3.23c0.1-0.82,0.16-1.64,0.21-2.46c-0.19-0.3-0.41-0.59-0.63-0.89
		c-0.32,2.13-0.49,4.31-0.49,6.54C52.75,70.11,52.75,70.13,52.75,70.14z"/>
	<path class="st2" d="M81.41,42.04c-0.19-0.01-0.35,0-0.55,0l0,0l0,0.01c-1.29,3.65-2.69,7.29-4.15,10.83
		c-2.87,6.95-4.49,9.91-6.18,12.44c-0.83,1.24-1.71,2.45-2.64,3.6h3.64v0.73h-0.4v1.69h0.4v1.25h-0.39v1.71h0.39v1.31h-0.39v1.65
		h0.39v1.31h-0.4v1.7h0.4v1.26h-0.4v1.7h0.4v1.3h-0.42v1.66h0.42v1.36h-1.4v-2.07h-1.74v2.07H66.4v-2.1h-1.69v2.1h-2.05v-1.1h0.4
		v-1.65h-0.4v-1.3h0.39v-1.72h-0.37V80.5h0.38v-0.72c-0.24-0.46-0.44-0.94-0.63-1.42c-0.89-1.14-1.69-2.35-2.31-3.63
		c-0.08-0.17-0.11-0.34-0.11-0.51c-1.44-2.11-2.58-4.41-4.05-6.51c-0.08-0.11-0.12-0.24-0.14-0.37c-0.06-0.08-0.13-0.15-0.18-0.23
		c-0.02,0.06-0.04,0.12-0.05,0.19c-0.37,2.99-1.03,5.98-2.05,8.77c-0.08,0.22-0.2,0.36-0.34,0.48c2.52,17.27-0.27,28.72,16.02,33.08
		c0.07-0.52,15.4,1.46,15.48,0.95c-0.98-0.75-1.88-1.57-2.67-2.44c-2.73-3.03-3.75-7-5.2-10.7c-0.47-1.21,1.45-1.7,1.93-0.53
		c1.21,2.95,3.29,5.47,5.1,8.05c0.51,0.73,0.97,1.55,1.46,2.36c0.1-0.47,0.2-0.95,0.31-1.42c0.17-0.68,0.85-0.84,1.36-0.61
		c-0.39-2.99-0.48-6.04,0.51-8.78c-0.57,0.19-1.36-0.2-1.41-0.92c-0.2-2.53,0.07-5.11,0.24-7.66c-0.08-1.69-0.13-3.38-0.28-5.06
		c-0.56,0.12-1.23-0.18-1.25-0.93c-0.04-1.77-0.09-3.55-0.17-5.32c-0.11-0.21-0.16-0.44-0.1-0.68c0.02-0.07,0.03-0.15,0.05-0.22
		c-0.13-2.46-0.35-4.92-0.79-7.34c-0.72-4.03-1.81-8.03-1.77-12.15c0.01-0.94,1.41-1.42,1.86-0.5c0.44,0.89,0.78,1.84,1.06,2.81
		c-0.04-0.87-0.09-1.73-0.16-2.6c-0.12-1.46-0.24-2.92-0.38-4.38c-0.05-0.53-0.12-1.03-0.09-1.51"/>
	<path class="st2" d="M125.73,98.05v-1.01h-0.4V95.8h0.4v-1.73h-0.39v-1.3h0.39v-1.73h-0.37v-1.21h0.37v-1.65h-0.38v-2.76h-1.59v2.1
		h-2.08v-2.09H120v2.09h-1.96v-2.1h-0.93v-0.45h-0.51v-1.28h0.52v-1.68h-0.51V80.7h0.53v-1.68h-0.57v-1.27h0.52v-1.69h-0.5v-0.6
		h3.19c-1.47-1.93-2.83-3.99-4.03-6.12c-1.67-2.96-2.64-5.37-4.41-9.73c-1.02-2.51-2-5.09-2.93-7.67l0-0.01v-5.49l0.02-0.01
		c0.3-0.15,0.6-0.24,0.91-0.26c0.37-0.02,0.6,0.06,0.83,0.15c0.16,0.06,0.32,0.12,0.53,0.14c0.45,0.04,0.7-0.15,0.99-0.37
		c0.27-0.2,0.57-0.43,1.07-0.51c0.49-0.08,0.8,0.04,1.1,0.16c0.28,0.11,0.54,0.21,0.95,0.17c0.69-0.06,1.36-0.51,2-1.34
		c-0.81,0.07-1.52-0.05-2.1-0.36c-0.31-0.16-0.5-0.33-0.66-0.48c-0.22-0.19-0.4-0.35-0.77-0.46c-0.42-0.13-0.72-0.07-1.01-0.02
		c-0.25,0.05-0.51,0.09-0.84,0.02c-0.64-0.14-1.21-0.68-1.7-1.58c-0.32,0-0.65,0-0.98,0c-0.29,0-0.58,0-0.87,0v10.07l0,0.01
		c-1.02,2.93-2.13,5.85-3.3,8.69c-2.81,6.83-4.54,9.81-5.6,11.46c-0.79,1.23-1.63,2.43-2.52,3.57h3.19v0.58h-0.47v1.65h0.47v1.31
		H99.1v1.69h0.47V82h-0.45v1.68h0.52v1.27h-0.5v0.43h-1.22v2.14h-2.01v-2.13h-1.73v2.13h-2v-2.17h-0.05
		c-0.04,1.53-0.06,3.07-0.07,4.6c0,0.56-0.38,0.87-0.8,0.94c0.07,2.41,0.04,4.82-0.05,7.23c0.07,0.72,0.14,1.44,0.21,2.16
		c0.1,0.99,0.19,1.98,0.28,2.98c0.22,0.58,0.41,1.16,0.58,1.72c0.51,1.74,1.06,4.07,0.36,5.84c0.2,0.64,0.44,1.26,0.77,1.87
		c0.02,0.03,0.02,0.06,0.04,0.09c0.21,0.2,0.28,0.48,0.25,0.76c0.55,0.02,1.1,0.04,1.66,0.04c12.44,0,23.63-5.44,31.42-14.11v-1.42
		H125.73z"/>
	<path class="st2" d="M139.22,62.65c0-0.45-0.39-0.82-0.87-0.82s-0.87,0.37-0.87,0.82s0.39,0.82,0.87,0.82S139.22,63.1,139.22,62.65
		z"/>
	<path class="st2" d="M153.68,112.77v-0.88h-0.35v-1.09h0.35v-1.51h-0.34v-1.14h0.34v-1.52h-0.33v-1.06h0.33v-1.44h-0.33v-2.42
		h-1.39v1.84h-1.81v-1.83h-1.48v1.83h-1.71v-1.84h-0.81v-0.4h-0.45v-1.12h0.45v-1.46h-0.45V97.6h0.46v-1.47h-0.5v-1.11h0.46v-1.48
		h-0.44v-0.53h2.79c-1.29-1.69-2.47-3.49-3.52-5.35c-1.46-2.59-2.31-4.69-3.86-8.5c-0.89-2.19-1.75-4.45-2.56-6.71l0-0.01v-4.8
		l0.02-0.01c0.26-0.13,0.53-0.21,0.79-0.23c0.33-0.02,0.53,0.06,0.72,0.13c0.14,0.05,0.28,0.1,0.46,0.12
		c0.39,0.03,0.61-0.13,0.87-0.33c0.23-0.18,0.5-0.37,0.93-0.44c0.43-0.07,0.7,0.04,0.96,0.14c0.24,0.09,0.47,0.18,0.83,0.15
		c0.6-0.06,1.19-0.45,1.75-1.17c-0.71,0.06-1.33-0.04-1.84-0.32c-0.27-0.14-0.43-0.29-0.58-0.42c-0.19-0.17-0.35-0.31-0.67-0.4
		c-0.37-0.11-0.63-0.06-0.88-0.02c-0.22,0.04-0.45,0.08-0.74,0.02c-0.56-0.13-1.06-0.59-1.48-1.38c-0.28,0-0.57,0-0.86,0
		c-0.26,0-0.51,0-0.76,0v8.81l0,0.01c-0.89,2.56-1.87,5.12-2.89,7.6c-2.45,5.97-3.97,8.58-4.9,10.02c-0.69,1.07-1.43,2.12-2.2,3.12
		h2.79v0.51h-0.41v1.44h0.41v1.14h-0.47v1.48h0.41v1.13h-0.39v1.46h0.46v1.11h-0.43v0.38h-1.07v1.87h-1.76v-1.86h-1.51v1.86h-1.75
		v-1.9h-0.04c-0.03,1.34-0.05,2.68-0.06,4.02c0,0.49-0.33,0.76-0.7,0.82c0.06,2.1,0.04,4.21-0.04,6.32
		c0.06,0.63,0.12,1.26,0.19,1.89c0.09,0.87,0.17,1.74,0.25,2.6c0.2,0.51,0.36,1.02,0.5,1.51c0.44,1.52,0.93,3.56,0.32,5.11
		c0.17,0.56,0.38,1.1,0.67,1.64c0.01,0.03,0.02,0.05,0.03,0.08c0.18,0.18,0.25,0.42,0.22,0.67c0.48,0.02,11-1.95,11.49-1.95
		c10.88,0,15.28-7.36,17.44-9.95v-1.64H153.68z"/>
</g>
</svg>
