<?xml version="1.0" encoding="utf-8"?>
<!-- Generator: Adobe Illustrator 25.2.3, SVG Export Plug-In . SVG Version: 6.00 Build 0)  -->
<svg version="1.1" xmlns="http://www.w3.org/2000/svg" xmlns:xlink="http://www.w3.org/1999/xlink" x="0px" y="0px"
	 viewBox="0 0 216 156" style="enable-background:new 0 0 216 156;" xml:space="preserve">
<style type="text/css">
	.st0{fill:#74A39F;}
	.st1{fill:#D8E2E7;}
	.st2{fill:#98B3B7;}
	.st3{fill:#FFFFFF;}
	.st4{fill:#FFEC00;}
</style>
<g id="Layer_1">
	<g id="Layer_5">
		<rect class="st0" width="216" height="156"/>
	</g>
	<g id="Layer_3">
		<ellipse class="st1" cx="108" cy="78" rx="58.690002" ry="59.880005"/>
	</g>
	<g id="Layer_4">
		<ellipse class="st2" cx="108" cy="78" rx="58.690002" ry="59.880005"/>
	</g>
	<g>
		<path class="st3" d="M124.243439,26.232569c-3.062675,0.097744-10.466621,1.712883-12.592834,2.117807
			c-4.528671,0.862467-6.076485,0.358402-9.118805-0.313597c-3.623833-0.800447-11.370392-3.22591-17.704086-1.282909
			c-1.075043,0.329794-2.672836,0.851072-4.147072,2.15719c-3.072914,2.722486-3.391953,6.772152-3.696976,10.060955
			c-0.708466,7.638908,0.454178,13.78907,0.734474,15.155159c0.013832,0.06741,0.025101,0.120758,0.047485,0.227482
			c1.036293,4.940113,7.55896,15.032391,6.687401,24.896503c-0.285095,8.408791-2.875343,17.080963-0.85527,25.226395
			c1.776115,8.148521,4.742386,14.667358,7.99881,19.85041c3.153046,4.306587,4.740494,5.171913,5.41098,5.416542
			c0.1763,0.064331,0.355972,0.118271,0.35598,0.118271c0.887566,0.239761,1.745659,0.070053,2.085228-0.077377
			c1.373077-0.596176,1.270691-4.455536,1.270691-4.455551c-0.483414-6.767769-1.478523-15.579834-1.54763-20.689392
			c-0.061096-4.51664-0.031372-6.77771,0.219925-8.377571c0.442673-2.818283,0.888428-4.840401,1.528824-6.447243
			c0.534264-1.34053,1.385422-2.531242,2.444939-3.510994c0.603729-0.558266,2.42617-2.155373,4.810432-2.15461
			c2.591179,0.000824,4.95842,1.81337,6.252266,4.655701c0.701927,1.554222,1.469856,3.723709,1.80014,6.394173
			c0.253723,2.051422,0.451004,3.606407,0.480583,4.097145c0.377327,6.261925-0.471359,12.119408-1.115929,20.412445
			c-0.100449,1.292389-0.905441,6.832054,0.215263,9.220337c0.34375,0.732544,1.14476,1.147003,1.942535,1.011475
			c1.782417-0.302795,4.183739-1.94883,6.486542-5.601135c3.514549-4.920372,5.842377-11.904755,6.481766-13.923866
			c0.056335-0.177887,0.103989-0.327423,0.171005-0.546494c0.734451-2.400497,2.637863-9.304893,1.686111-19.459427
			c-0.313004-3.339554-0.514694-2.548111-0.85527-6.133507c-0.428665-4.512703-0.76532-8.056786,0.073303-12.291451
			c0.74559-3.764854,0.873398-3.964859,1.991516-6.431061c2.235962-4.931808,4.72847-9.916809,5.113007-16.6035
			c0.551849-4.434307,1.032761-15.08604-3.593842-19.834826C132.69371,26.504831,129.945175,26.05061,124.243439,26.232569z"/>
	</g>
</g>
<g id="Layer_2">
	<polygon class="st4" points="129.074844,36.64835 127.280365,31.528318 122.04528,30.103951 126.360191,26.815111 
		126.097115,21.396097 130.558365,24.483517 135.630859,22.558748 134.073151,27.755718 137.471207,31.985161 132.047241,32.109646 
			"/>
</g>
</svg>
